<?xml version="1.0" encoding="UTF-8" standalone="no"?>
<!DOCTYPE svg PUBLIC "-//W3C//DTD SVG 1.1//EN" "http://www.w3.org/Graphics/SVG/1.1/DTD/svg11.dtd">
<!-- Generated by Microsoft Visio, SVG Export continuum.svg Page-1 -->
<svg xmlns="http://www.w3.org/2000/svg" xmlns:xlink="http://www.w3.org/1999/xlink" xmlns:ev="http://www.w3.org/2001/xml-events"
		xmlns:v="http://schemas.microsoft.com/visio/2003/SVGExtensions/" width="972px" height="8.5in"  viewBox="0 0 792 612"
		xml:space="preserve" color-interpolation-filters="sRGB" class="st32">
	<v:documentProperties v:langID="1033" v:viewMarkup="false">
		<v:userDefs>
			<v:ud v:nameU="msvSubprocessMaster" v:prompt="" v:val="VT4(Rectangle)"/>
			<v:ud v:nameU="msvNoAutoConnect" v:val="VT0(1):26"/>
		</v:userDefs>
	</v:documentProperties>

	<style type="text/css">
	<![CDATA[
		.st1 {visibility:visible}
		.st2 {fill:#5b9bd5;fill-opacity:0.25;filter:url(#filter_2);stroke:#5b9bd5;stroke-opacity:0.25}
		.st3 {fill:#4f87bb;stroke:#40709c;stroke-width:0.75}
		.st4 {fill:none;stroke:none;stroke-width:0.25}
		.st5 {fill:#5b9bd5;font-family:Calibri;font-size:2.50001em}
		.st6 {fill:#5b9bd5;fill-opacity:0.22;filter:url(#filter_2);stroke:#5b9bd5;stroke-dasharray:1.75,1.25;stroke-opacity:0.22}
		.st7 {fill:#feffff;stroke:#c7c8c8;stroke-dasharray:1.75,1.25;stroke-width:0.25}
		.st8 {fill:#5b9bd5;fill-opacity:0.22;filter:url(#filter_2);stroke:#5b9bd5;stroke-opacity:0.22}
		.st9 {fill:#002060;stroke:#c7c8c8;stroke-width:0.25}
		.st10 {fill:#ffffff;stroke:#c7c8c8;stroke-width:0.25}
		.st11 {fill:#feffff;font-family:Calibri;font-size:1.00001em}
		.st12 {fill:#5b9bd5;stroke:#c7c8c8;stroke-width:0.25}
		.st13 {fill:#feffff;font-family:Calibri;font-size:0.833336em}
		.st14 {fill:#7030a0;stroke:url(#grad0-51);stroke-width:0.25}
		.st15 {fill:#000000;font-family:Calibri;font-size:1.16666em;font-weight:bold}
		.st16 {fill:#e76f00;stroke:none;stroke-linecap:butt;stroke-width:0.75}
		.st17 {fill:#5382a1;stroke:none;stroke-linecap:butt;stroke-width:0.75}
		.st18 {fill:#e76f00}
		.st19 {stroke:none;stroke-linecap:butt;stroke-width:0.75}
		.st20 {font-family:Segoe UI Symbol;font-size:1em}
		.st21 {fill:#131b28;stroke:none;stroke-linecap:butt;stroke-width:0.75}
		.st22 {fill:#131b28}
		.st23 {fill:#0868ac}
		.st24 {fill:#0868ac;stroke:none;stroke-linecap:butt;stroke-width:0.75}
		.st25 {fill:#5b9bd5;font-family:Calibri;font-size:1.00001em}
		.st26 {font-size:1em}
		.st27 {fill:#000000;stroke:none;stroke-linecap:butt;stroke-width:0.75}
		.st28 {fill:#952781;stroke:none;stroke-linecap:butt;stroke-width:0.75}
		.st29 {fill:#6483c0;stroke:none;stroke-linecap:butt;stroke-width:0.75}
		.st30 {fill:#d87b30;stroke:none;stroke-linecap:butt;stroke-width:0.75}
		.st31 {fill:#e0d400;stroke:none;stroke-linecap:butt;stroke-width:0.75}
		.st32 {fill:none;fill-rule:evenodd;font-size:12px;overflow:visible;stroke-linecap:square;stroke-miterlimit:3}
	]]>
	</style>

	<defs id="Patterns_And_Gradients">
		<linearGradient id="grad0-51" x1="0" y1="0" x2="1" y2="0" gradientTransform="rotate(90 0.5 0.5)">
			<stop offset="0" stop-color="#f6fafc" stop-opacity="1"/>
			<stop offset="0.74" stop-color="#b5d2ec" stop-opacity="1"/>
			<stop offset="0.83" stop-color="#b5d2ec" stop-opacity="1"/>
			<stop offset="1" stop-color="#cde1f2" stop-opacity="1"/>
		</linearGradient>
	</defs>
	<defs id="Filters">
		<filter id="filter_2">
			<feGaussianBlur stdDeviation="2"/>
		</filter>
	</defs>
	<g v:mID="0" v:index="1" v:groupContext="foregroundPage">
		<v:userDefs>
			<v:ud v:nameU="msvThemeOrder" v:val="VT0(0):26"/>
		</v:userDefs>
		<title>Page-1</title>
		<v:pageProperties v:drawingScale="1" v:pageScale="1" v:drawingUnits="0" v:shadowOffsetX="9" v:shadowOffsetY="-9"/>
		<g id="shape1-1" v:mID="1" v:groupContext="shape" transform="translate(756,926.4) rotate(180)">
			<title>Modern Arrow</title>
			<v:userDefs>
				<v:ud v:nameU="CtrlAngle" v:prompt="" v:val="VT0(0.78539816339745):32"/>
				<v:ud v:nameU="visVersion" v:prompt="" v:val="VT0(15):26"/>
			</v:userDefs>
			<g id="shadow1-2" v:groupContext="shadow" v:shadowOffsetX="0.345598" v:shadowOffsetY="-1.97279" v:shadowType="1"
					transform="matrix(1,0,0,1,-0.345598,-1.97279)" class="st1">
				<path d="M0 612 L27 585 L33.36 591.36 L17.23 607.5 L702 607.5 L702 616.5 L17.23 616.5 L33.36 632.64 L27 639 L0 612
							 Z" class="st2"/>
			</g>
			<path d="M0 612 L27 585 L33.36 591.36 L17.23 607.5 L702 607.5 L702 616.5 L17.23 616.5 L33.36 632.64 L27 639 L0 612 Z"
					class="st3"/>
		</g>
		<g id="shape3-6" v:mID="3" v:groupContext="shape" transform="translate(135,-239.1)">
			<title>Sheet.3</title>
			<desc>C++</desc>
			<v:textBlock v:margins="rect(4,4,4,4)"/>
			<v:textRect cx="49.5" cy="583.05" width="99" height="57.9"/>
			<rect x="0" y="554.1" width="99" height="57.9" class="st4"/>
			<text x="26.56" y="592.05" class="st5" v:langID="1033"><v:paragraph v:horizAlign="1"/><v:tabList/>C++</text>		</g>
		<g id="group12-9" transform="translate(654.06,-302.1)" v:mID="12" v:groupContext="group">
			<title>Sheet.12</title>
			<g id="shape8-10" v:mID="8" v:groupContext="shape">
				<title>Circle.8</title>
				<v:userDefs>
					<v:ud v:nameU="visVersion" v:val="VT0(15):26"/>
				</v:userDefs>
				<g id="shadow8-11" v:groupContext="shadow" v:shadowOffsetX="0.345598" v:shadowOffsetY="-1.97279" v:shadowType="1"
						transform="matrix(1,0,0,1,0.345598,1.97279)" class="st1">
					<path d="M0 583.79 A28.2077 28.2077 0 0 1 56.42 583.79 A28.2077 28.2077 0 1 1 0 583.79 Z" class="st6"/>
				</g>
				<path d="M0 583.79 A28.2077 28.2077 0 0 1 56.42 583.79 A28.2077 28.2077 0 1 1 0 583.79 Z" class="st7"/>
			</g>
			<g id="shape4-15" v:mID="4" v:groupContext="shape" transform="translate(4.45385,-4.45385)">
				<title>Circle</title>
				<v:userDefs>
					<v:ud v:nameU="visVersion" v:val="VT0(15):26"/>
				</v:userDefs>
				<g id="shadow4-16" v:groupContext="shadow" v:shadowOffsetX="0.345598" v:shadowOffsetY="-1.97279" v:shadowType="1"
						transform="matrix(1,0,0,1,0.345598,1.97279)" class="st1">
					<path d="M0 588.25 A23.7538 23.7538 0 0 1 47.51 588.25 A23.7538 23.7538 0 0 1 -0 588.25 Z" class="st8"/>
				</g>
				<path d="M0 588.25 A23.7538 23.7538 0 0 1 47.51 588.25 A23.7538 23.7538 0 0 1 -0 588.25 Z" class="st9"/>
			</g>
			<g id="shape5-20" v:mID="5" v:groupContext="shape" transform="translate(28.2077,-28.2077)">
				<title>Circle.5</title>
				<v:userDefs>
					<v:ud v:nameU="visVersion" v:val="VT0(15):26"/>
				</v:userDefs>
				<g id="shadow5-21" v:groupContext="shadow" v:shadowOffsetX="0.345598" v:shadowOffsetY="-1.97279" v:shadowType="1"
						transform="matrix(1,0,0,1,0.345598,1.97279)" class="st1">
					<path d="M0 604.08 A7.91795 7.91795 0 1 1 15.84 604.08 A7.91795 7.91795 0 0 1 0 604.08 Z" class="st8"/>
				</g>
				<path d="M0 604.08 A7.91795 7.91795 0 1 1 15.84 604.08 A7.91795 7.91795 0 0 1 0 604.08 Z" class="st10"/>
			</g>
			<g id="shape7-25" v:mID="7" v:groupContext="shape" transform="translate(14.7483,-10.1078)">
				<title>Sheet.7</title>
				<desc>Lua</desc>
				<v:textBlock v:margins="rect(4,4,4,4)"/>
				<v:textRect cx="13.4594" cy="603.798" width="26.92" height="16.405"/>
				<rect x="0" y="595.595" width="26.9188" height="16.405" class="st4"/>
				<text x="4.91" y="607.4" class="st11" v:langID="1033"><v:paragraph v:horizAlign="1"/><v:tabList/>Lua</text>			</g>
			<g id="shape10-28" v:mID="10" v:groupContext="shape" transform="translate(44.0436,-42.0641)">
				<title>Circle.10</title>
				<v:userDefs>
					<v:ud v:nameU="visVersion" v:val="VT0(15):26"/>
				</v:userDefs>
				<g id="shadow10-29" v:groupContext="shadow" v:shadowOffsetX="0.345598" v:shadowOffsetY="-1.97279" v:shadowType="1"
						transform="matrix(1,0,0,1,0.345598,1.97279)" class="st1">
					<path d="M0 604.08 A7.91795 7.91795 0 1 1 15.84 604.08 A7.91795 7.91795 0 0 1 0 604.08 Z" class="st8"/>
				</g>
				<path d="M0 604.08 A7.91795 7.91795 0 1 1 15.84 604.08 A7.91795 7.91795 0 0 1 0 604.08 Z" class="st9"/>
			</g>
		</g>
		<g id="shape1000-33" v:mID="1000" v:groupContext="shape" transform="translate(85.5,-293.1)">
			<title>Sheet.1000</title>
			<desc>C</desc>
			<v:textBlock v:margins="rect(4,4,4,4)"/>
			<v:textRect cx="49.5" cy="583.05" width="99" height="57.9"/>
			<rect x="0" y="554.1" width="99" height="57.9" class="st4"/>
			<text x="41.5" y="592.05" class="st5" v:langID="1033"><v:paragraph v:horizAlign="1"/><v:tabList/>C</text>		</g>
		<g id="shape1001-36" v:mID="1001" v:groupContext="shape" transform="translate(36,-239.1)">
			<title>Sheet.1001</title>
			<desc>ASM</desc>
			<v:textBlock v:margins="rect(4,4,4,4)"/>
			<v:textRect cx="49.5" cy="583.05" width="99" height="57.9"/>
			<rect x="0" y="554.1" width="99" height="57.9" class="st4"/>
			<text x="21.1" y="592.05" class="st5" v:langID="1033"><v:paragraph v:horizAlign="1"/><v:tabList/>ASM</text>		</g>
		<g id="shape1002-39" v:mID="1002" v:groupContext="shape" transform="translate(598.5,-243.6)">
			<title>Rectangle.1002</title>
			<desc>COBOL</desc>
			<v:userDefs>
				<v:ud v:nameU="visVersion" v:val="VT0(15):26"/>
			</v:userDefs>
			<v:textBlock v:margins="rect(4,4,4,4)"/>
			<v:textRect cx="27" cy="596.25" width="54" height="31.5"/>
			<g id="shadow1002-40" v:groupContext="shadow" v:shadowOffsetX="0.345598" v:shadowOffsetY="-1.97279" v:shadowType="1"
					transform="matrix(1,0,0,1,0.345598,1.97279)" class="st1">
				<rect x="0" y="580.5" width="54" height="31.5" class="st8"/>
			</g>
			<rect x="0" y="580.5" width="54" height="31.5" class="st12"/>
			<text x="12.89" y="599.25" class="st13" v:langID="1033"><v:paragraph v:horizAlign="1"/><v:tabList/>COBOL</text>		</g>
		<g id="shape1003-45" v:mID="1003" v:groupContext="shape" transform="translate(516.121,-308.54)">
			<title>Ellipse.1003</title>
			<desc>PHP</desc>
			<v:userDefs>
				<v:ud v:nameU="visVersion" v:val="VT0(15):26"/>
			</v:userDefs>
			<v:textBlock v:margins="rect(4,4,4,4)"/>
			<v:textRect cx="29.9397" cy="592.04" width="52.4" height="34.9297"/>
			<g id="shadow1003-46" v:groupContext="shadow" v:shadowOffsetX="0.345598" v:shadowOffsetY="-1.97279" v:shadowType="1"
					transform="matrix(1,0,0,1,0.345598,1.97279)" class="st1">
				<path d="M0 592.04 A29.9397 19.9598 0 0 1 59.88 592.04 A29.9397 19.9598 0 1 1 0 592.04 Z" class="st8"/>
			</g>
			<path d="M0 592.04 A29.9397 19.9598 0 0 1 59.88 592.04 A29.9397 19.9598 0 1 1 0 592.04 Z" class="st14"/>
			<text x="18.07" y="596.24" class="st15" v:langID="1033"><v:paragraph v:horizAlign="1"/><v:tabList/>PHP</text>		</g>
		<g id="group1004-53" transform="translate(283.5,-208.89)" v:mID="1004" v:groupContext="group">
			<title>Sheet.1004</title>
			<g id="shape1005-54" v:mID="1005" v:groupContext="shape" transform="translate(44.4926,-15.8936)">
				<title>Sheet.1005</title>
				<path d="M0.3 611.17 L0 611.17 L0 611 L0.8 611 L0.8 611.17 L0.51 611.17 L0.51 612 L0.3 612 L0.3 611.17 ZM1.9 611.21
							 L1.89 611.21 L1.6 612 L1.46 612 L1.17 611.21 L1.17 611.21 L1.17 612 L0.97 612 L0.97 611 L1.26 611 L1.53
							 611.71 L1.8 611 L2.09 611 L2.09 612 L1.9 612 L1.9 611.21 L1.9 611.21 Z" class="st16"/>
			</g>
			<g id="shape1006-56" v:mID="1006" v:groupContext="shape" transform="translate(9.76716,-29.9982)">
				<title>Sheet.1006</title>
				<path d="M8.34 604.85 C8.34 604.85 6.27 606.06 9.82 606.47 C14.12 606.96 16.32 606.89 21.06 605.99 C21.06 605.99
							 22.3 606.77 24.04 607.45 C13.42 612 0 607.18 8.34 604.85 Z" class="st17"/>
			</g>
			<g id="shape1007-58" v:mID="1007" v:groupContext="shape" transform="translate(7.62132,-36.5768)">
				<title>Sheet.1007</title>
				<path d="M9.19 605.49 C9.19 605.49 6.87 607.21 10.42 607.58 C15.01 608.05 18.64 608.09 24.91 606.88 C24.91 606.88
							 25.78 607.76 27.15 608.24 C14.3 612 0 608.54 9.19 605.49 Z" class="st17"/>
			</g>
			<g id="shape1008-60" v:mID="1008" v:groupContext="shape" transform="translate(18.8828,-47.4392)">
				<title>Sheet.1008</title>
				<path d="M8.87 606.27 C11.49 609.29 8.18 612 8.18 612 C8.18 612 14.83 608.57 11.78 604.27 C8.93 600.27 6.74 598.28
							 18.58 591.41 C18.58 591.41 0 596.05 8.87 606.27 Z" class="st16"/>
			</g>
			<g id="shape1009-62" v:mID="1009" v:groupContext="shape" transform="translate(0,-25.1237)">
				<title>Sheet.1009</title>
				<path d="M41.8 604.37 C41.8 604.37 43.34 605.64 40.11 606.61 C33.98 608.47 14.59 609.03 9.21 606.69 C7.27 605.85
							 10.9 604.68 12.05 604.43 C13.24 604.17 13.92 604.22 13.92 604.22 C11.76 602.71 0 607.2 7.94 608.49 C29.6
							 612 47.42 606.91 41.8 604.37 Z" class="st17"/>
			</g>
			<g id="shape1010-64" v:mID="1010" v:groupContext="shape" transform="translate(4.99795,-43.304)">
				<title>Sheet.1010</title>
				<path d="M14.11 606.06 C14.11 606.06 4.25 608.4 10.62 609.25 C13.31 609.62 18.67 609.53 23.66 609.12 C27.74 608.77
							 31.84 608.04 31.84 608.04 C31.84 608.04 30.4 608.66 29.36 609.37 C19.35 612 0 610.77 5.57 608.08 C10.28
							 605.8 14.11 606.06 14.11 606.06 Z" class="st17"/>
			</g>
			<g id="shape1011-66" v:mID="1011" v:groupContext="shape" transform="translate(36.5945,-39.0865)">
				<title>Sheet.1011</title>
				<path d="M0.2 611.73 C10.39 606.44 5.68 601.36 2.39 602.04 C1.59 602.21 1.23 602.36 1.23 602.36 C1.23 602.36 1.53
							 601.89 2.1 601.69 C8.6 599.4 13.6 608.43 0 612 C0 612 0.16 611.86 0.2 611.73 Z" class="st17"/>
			</g>
			<g id="shape1012-68" v:mID="1012" v:groupContext="shape" transform="translate(16.3942,-49.3413)">
				<title>Sheet.1012</title>
				<path d="M14.27 582.23 C14.27 582.23 19.91 587.87 8.92 596.54 C0.11 603.5 6.91 607.47 8.92 612 C3.77 607.36 0 603.28
							 2.53 599.48 C6.25 593.9 16.54 591.19 14.27 582.23 Z" class="st16"/>
			</g>
			<g id="shape1013-70" v:mID="1013" v:groupContext="shape" transform="translate(12.4366,-24.3926)">
				<title>Sheet.1013</title>
				<path d="M7.67 611.37 C17.44 612 32.45 611.03 32.8 606.4 C32.8 606.4 32.12 608.16 24.73 609.55 C16.39 611.12 6.1
							 610.93 0 609.93 C0 609.93 1.25 610.96 7.67 611.37 Z" class="st17"/>
			</g>
			<g id="shape1014-72" v:mID="1014" v:groupContext="shape" transform="translate(11.2711,-4.23041)">
				<title>Sheet.1014</title>
				<path d="M7.24 608.88 C6.31 609.68 5.34 610.13 4.47 610.13 C3.22 610.13 2.55 609.38 2.55 608.18 C2.55 606.88 3.27
							 605.94 6.16 605.94 L7.24 605.94 L7.24 608.88 L7.24 608.88 ZM9.78 611.75 L9.78 602.87 C9.78 600.6 8.48
							 599.1 5.36 599.1 C3.54 599.1 1.95 599.55 0.65 600.12 L1.02 601.7 C2.04 601.32 3.37 600.97 4.66 600.97
							 C6.46 600.97 7.24 601.7 7.24 603.19 L7.24 604.31 L6.34 604.31 C1.97 604.31 0 606.01 0 608.56 C0 610.75
							 1.3 612 3.74 612 C5.31 612 6.49 611.35 7.58 610.4 L7.78 611.75 L9.78 611.75 L9.78 611.75 Z"
						class="st18"/>
				<path d="M7.24 608.88 C6.31 609.68 5.34 610.13 4.47 610.13 C3.22 610.13 2.55 609.38 2.55 608.18 C2.55 606.88 3.27
							 605.94 6.16 605.94 L7.24 605.94 L7.24 608.88M9.78 611.75 L9.78 602.87 C9.78 600.6 8.48 599.1 5.36 599.1
							 C3.54 599.1 1.95 599.55 0.65 600.12 L1.02 601.7 C2.04 601.32 3.37 600.97 4.66 600.97 C6.46 600.97 7.24
							 601.7 7.24 603.19 L7.24 604.31 L6.34 604.31 C1.97 604.31 0 606.01 0 608.56 C0 610.75 1.3 612 3.74 612
							 C5.31 612 6.49 611.35 7.58 610.4 L7.78 611.75 L9.78 611.75 L9.78 611.75" class="st19"/>
			</g>
			<g id="shape1015-75" v:mID="1015" v:groupContext="shape" transform="translate(22.5488,-4.48036)">
				<title>Sheet.1015</title>
				<path d="M6.99 612 L3.82 612 L0 599.57 L2.77 599.57 L5.14 607.21 L5.67 609.5 C6.86 606.19 7.71 602.82 8.14 599.57
							 L10.83 599.57 C10.11 603.67 8.81 608.16 6.99 612 Z" class="st16"/>
			</g>
			<g id="shape1016-77" v:mID="1016" v:groupContext="shape" transform="translate(34.4723,-4.23041)">
				<title>Sheet.1016</title>
				<path d="M7.24 608.88 C6.31 609.68 5.34 610.13 4.46 610.13 C3.22 610.13 2.54 609.38 2.54 608.18 C2.54 606.88 3.27
							 605.94 6.16 605.94 L7.24 605.94 L7.24 608.88 ZM9.78 611.75 L9.78 602.87 C9.78 600.6 8.48 599.1 5.37
							 599.1 C3.54 599.1 1.95 599.55 0.65 600.12 L1.02 601.7 C2.05 601.32 3.37 600.97 4.67 600.97 C6.46 600.97
							 7.24 601.7 7.24 603.19 L7.24 604.31 L6.34 604.31 C1.97 604.31 0 606.01 0 608.56 C0 610.75 1.3 612 3.74
							 612 C5.31 612 6.49 611.35 7.59 610.4 L7.79 611.75 L9.78 611.75 L9.78 611.75 Z" class="st16"/>
			</g>
			<g id="shape1017-79" v:mID="1017" v:groupContext="shape" transform="translate(4.04759,0)">
				<title>Sheet.1017</title>
				<path d="M4.43 609.63 C3.71 610.69 2.54 611.53 1.26 612 L0 610.52 C0.98 610.02 1.81 609.21 2.2 608.46 C2.54 607.79
							 2.68 606.93 2.68 604.86 L2.68 590.67 L5.38 590.67 L5.38 604.67 C5.38 607.43 5.16 608.54 4.43 609.63
							 Z" class="st16"/>
			</g>
		</g>
		<g id="shape1018-81" v:mID="1018" v:groupContext="shape" transform="translate(306,-252)">
			<title>Sheet.1018</title>
			<rect x="0" y="594" width="45" height="18" class="st4"/>
		</g>
		<g id="shape1019-83" v:mID="1019" v:groupContext="shape" transform="translate(222.06,-299.55)">
			<title>Sheet.1019</title>
			<desc>C ♯</desc>
			<v:textBlock v:margins="rect(4,4,4,4)"/>
			<v:textRect cx="29.9397" cy="583.05" width="59.88" height="57.9"/>
			<rect x="0" y="554.1" width="59.8795" height="57.9" class="st4"/>
			<text x="4" y="592.28" class="st5" v:langID="1033"><v:paragraph v:spBefore="5" v:spAfter="5" v:bulletSize="0.166667"/><v:tabList/>C <tspan
						class="st20">♯</tspan></text>		</g>
		<g id="group1087-87" transform="translate(418.5,-240.357)" v:mID="1087" v:groupContext="group">
			<title>Sheet.1087</title>
			<g id="shape1088-88" v:mID="1088" v:groupContext="shape" transform="translate(60.3848,-19.0182)">
				<title>Sheet.1088</title>
				<path d="M0.91 608.78 L0.91 608.78 C0.91 608.78 0 612 0 612 C0 612 0.91 608.78 0.91 608.78 L0.91 608.78 Z"
						class="st21"/>
			</g>
			<g id="shape1089-90" v:mID="1089" v:groupContext="shape" transform="translate(64.9622,-15.2484)">
				<title>Sheet.1089</title>
				<path d="M1 612 C1 612 0 611.99 0 611.99 C0 611.99 1 612 1 612 Z" class="st21"/>
			</g>
			<g id="shape1090-92" v:mID="1090" v:groupContext="shape" transform="translate(59.7113,-10.4205)">
				<title>Sheet.1090</title>
				<path d="M5.99 611.98 L6 611.98 C6 611.98 0 612 0 612 C0 612 5.99 611.98 5.99 611.98 L5.99 611.98 Z" class="st21"/>
			</g>
			<g id="shape1091-94" v:mID="1091" v:groupContext="shape" transform="translate(65.9615,-15.2424)">
				<title>Sheet.1091</title>
				<path d="M1 612 C1 612 0 611.99 0 611.99 C0 611.99 1 612 1 612 Z" class="st21"/>
			</g>
			<g id="shape1092-96" v:mID="1092" v:groupContext="shape" transform="translate(66.2311,-10.8501)">
				<title>Sheet.1092</title>
				<path d="M0 612 C0 612 1.04 608.02 1.04 608.02 C1.04 608.02 0 612 0 612 L0 612 L0 612 Z" class="st21"/>
			</g>
			<g id="shape1093-98" v:mID="1093" v:groupContext="shape" transform="translate(86.3584,-20.0465)">
				<title>Sheet.1093</title>
				<path d="M1.95 602.85 C1.95 602.85 0 612 0 612 C0 612 1.95 602.85 1.95 602.85 Z" class="st21"/>
			</g>
			<g id="shape1094-100" v:mID="1094" v:groupContext="shape" transform="translate(81.8262,-22.36)">
				<title>Sheet.1094</title>
				<path d="M1.48 605.17 C1.48 605.17 0 612 0 612 C0 612 1.48 605.17 1.48 605.17 L1.48 605.17 Z" class="st21"/>
			</g>
			<g id="shape1095-102" v:mID="1095" v:groupContext="shape" transform="translate(68.689,-10.4903)">
				<title>Sheet.1095</title>
				<path d="M19.28 592.89 L15.12 592.89 C14.89 592.89 14.66 593.07 14.61 593.3 C14.61 593.3 13.14 600.13 13.14 600.13
							 C13.14 600.13 11.66 606.96 11.66 606.96 C11.61 607.19 11.38 607.37 11.15 607.37 L8.63 607.37 L8.21 607.37
							 C5.29 607.37 5.63 605.36 6.23 602.6 C6.23 602.57 6.24 602.54 6.24 602.51 C6.24 602.51 6.31 602.17 6.31
							 602.17 C6.31 602.14 6.32 602.12 6.32 602.1 C6.32 602.1 6.45 601.39 6.45 601.39 C6.45 601.39 6.6 600.63
							 6.6 600.63 C6.64 600.4 6.71 600.07 6.75 599.86 C6.75 599.86 7.42 596.58 7.42 596.58 C7.42 596.58 8.09
							 593.3 8.09 593.3 C8.14 593.07 7.99 592.89 7.76 592.89 L3.49 592.89 C3.26 592.89 3.03 593.07 2.98 593.3
							 C2.98 593.3 2.06 597.65 2.06 597.65 C2.06 597.65 1.14 602.01 1.14 602.01 C1.14 602.01 1.14 602.01 1.14
							 602.02 C1.14 602.02 1.06 602.42 1.06 602.42 C0 607.25 0.28 611.85 6.03 612 C6.12 612 6.19 612 6.19 612
							 L15.22 612 C15.45 612 15.68 611.81 15.72 611.59 C15.72 611.59 17.67 602.44 17.67 602.44 C17.67 602.44
							 19.61 593.3 19.61 593.3 C19.66 593.07 19.51 592.89 19.28 592.89 L19.28 592.89 Z" class="st21"/>
			</g>
			<g id="shape1096-104" v:mID="1096" v:groupContext="shape" transform="translate(104.498,-12.6843)">
				<title>Sheet.1096</title>
				<path d="M0.07 609.61 C0.3 609.61 0.45 609.8 0.4 610.03 C0.4 610.03 0 612 0 612 L0.07 609.61 Z" class="st22"/>
				<path d="M0.07 609.61 C0.3 609.61 0.45 609.8 0.4 610.03 C0.4 610.03 0 612 0 612" class="st19"/>
			</g>
			<g id="shape1097-107" v:mID="1097" v:groupContext="shape" transform="translate(104.094,-10.7083)">
				<title>Sheet.1097</title>
				<path d="M0 612 C0 612 0.4 610.02 0.4 610.02 C0.4 610.02 0 612 0 612 C0 612 0 612 0 612 L0 612 Z" class="st21"/>
			</g>
			<g id="shape1098-109" v:mID="1098" v:groupContext="shape" transform="translate(95.9218,-10.2562)">
				<title>Sheet.1098</title>
				<path d="M7.67 611.96 C7.67 611.96 7.67 611.96 7.67 611.96 C6.44 611.97 2.77 612 0 612 C3.37 612 7.67 611.96 7.67
							 611.96 L7.67 611.96 Z" class="st21"/>
			</g>
			<g id="shape1099-111" v:mID="1099" v:groupContext="shape" transform="translate(93.1604,-15.8555)">
				<title>Sheet.1099</title>
				<path d="M0.28 610.24 C0.28 610.03 0.52 609.65 0.75 609.65 C0.75 609.65 0.23 609.65 0.23 609.65 C0 612 0.28 610.24
							 0.28 610.24 L0.28 610.24 Z" class="st21"/>
			</g>
			<g id="shape1100-113" v:mID="1100" v:groupContext="shape" transform="translate(96.2208,-10.2565)">
				<title>Sheet.1100</title>
				<path d="M0.08 612 C0.05 612 0.03 612 0 612 C0.03 612 0.05 612 0.08 612 Z" class="st21"/>
			</g>
			<g id="shape1101-115" v:mID="1101" v:groupContext="shape" transform="translate(104.432,-12.3622)">
				<title>Sheet.1101</title>
				<path d="M0.13 609.29 C0.37 609.29 0.52 609.48 0.47 609.7 C0.47 609.7 0.07 611.68 0.07 611.68 C0.07 611.68 0 612
							 0 612 L0.13 609.29 Z" class="st22"/>
				<path d="M0.13 609.29 C0.37 609.29 0.52 609.48 0.47 609.7 C0.47 609.7 0.07 611.68 0.07 611.68 C0.07 611.68 0 612
							 0 612" class="st19"/>
			</g>
			<g id="shape1102-118" v:mID="1102" v:groupContext="shape" transform="translate(98.2534,-10.2617)">
				<title>Sheet.1102</title>
				<path d="M0.02 612 L0 612 L0.02 612 Z" class="st21"/>
			</g>
			<g id="shape1103-120" v:mID="1103" v:groupContext="shape" transform="translate(97.1898,-10.2584)">
				<title>Sheet.1103</title>
				<path d="M0.06 612 L0 612 L0.06 612 Z" class="st21"/>
			</g>
			<g id="shape1104-122" v:mID="1104" v:groupContext="shape" transform="translate(96.8395,-10.2571)">
				<title>Sheet.1104</title>
				<path d="M0.1 612 C0.06 612 0.03 612 0 612 C0.03 612 0.06 612 0.1 612 Z" class="st21"/>
			</g>
			<g id="shape1105-124" v:mID="1105" v:groupContext="shape" transform="translate(96.5345,-10.2571)">
				<title>Sheet.1105</title>
				<path d="M0.09 612 L0 612 L0.09 612 Z" class="st21"/>
			</g>
			<g id="shape1106-126" v:mID="1106" v:groupContext="shape" transform="translate(96.9374,-10.2579)">
				<title>Sheet.1106</title>
				<path d="M0.25 612 C0.17 612 0.08 612 0 612 C0.08 612 0.17 612 0.25 612 Z" class="st21"/>
			</g>
			<g id="shape1107-128" v:mID="1107" v:groupContext="shape" transform="translate(97.2504,-10.2583)">
				<title>Sheet.1107</title>
				<path d="M1 612 C0.67 612 0.33 612 0 612 C0.33 612 0.67 612 1 612 Z" class="st21"/>
			</g>
			<g id="shape1108-130" v:mID="1108" v:groupContext="shape" transform="translate(98.2689,-10.2618)">
				<title>Sheet.1108</title>
				<path d="M5.32 611.97 L5.32 611.97 C4.42 611.97 2.21 611.99 0 612 C2.21 611.99 4.42 611.97 5.32 611.97 Z"
						class="st21"/>
			</g>
			<g id="shape1109-132" v:mID="1109" v:groupContext="shape" transform="translate(104.094,-10.7068)">
				<title>Sheet.1109</title>
				<path d="M0 612 C0 612 0.34 610.34 0.34 610.34 C0.34 610.34 0 612 0 612 C0 612 0 612 0 612 L0 612 Z" class="st21"/>
			</g>
			<g id="shape1110-134" v:mID="1110" v:groupContext="shape" transform="translate(96.6203,-10.2571)">
				<title>Sheet.1110</title>
				<path d="M0.22 612 L0 612 L0.22 612 Z" class="st21"/>
			</g>
			<g id="shape1111-136" v:mID="1111" v:groupContext="shape" transform="translate(95.9226,-10.2565)">
				<title>Sheet.1111</title>
				<path d="M0.3 612 L0 612 L0.3 612 Z" class="st21"/>
			</g>
			<g id="shape1112-138" v:mID="1112" v:groupContext="shape" transform="translate(96.2996,-10.2571)">
				<title>Sheet.1112</title>
				<path d="M0.23 612 L0 612 L0.23 612 Z" class="st21"/>
			</g>
			<g id="shape1113-140" v:mID="1113" v:groupContext="shape" transform="translate(34.8802,-13.818)">
				<title>Sheet.1113</title>
				<path d="M0.8 608.25 C0.8 608.25 1.45 605.39 1.45 605.39 C1.45 605.39 0.71 608.66 0.71 608.66 C0.71 608.66 0 612
							 0 612 C0 612 0.62 609.08 0.62 609.08 C0.67 608.85 0.75 608.48 0.8 608.25 L0.8 608.25 Z" class="st21"/>
			</g>
			<g id="shape1114-142" v:mID="1114" v:groupContext="shape" transform="translate(37.417,-25.0083)">
				<title>Sheet.1114</title>
				<path d="M6 607.36 L1.43 607.36 C1.2 607.36 0.97 607.54 0.92 607.77 C0.92 607.77 0.48 609.68 0.48 609.68 C0.48 609.68
							 0.05 611.59 0.05 611.59 C0 611.82 0.15 612 0.38 612 L4.98 612 C5.21 612 5.44 611.82 5.49 611.59 C5.49
							 611.59 5.91 609.68 5.91 609.68 C5.91 609.68 6.33 607.77 6.33 607.77 L6.33 607.77 C6.38 607.54 6.23 607.36
							 6 607.36 L6 607.36 Z" class="st21"/>
			</g>
			<g id="shape1115-144" v:mID="1115" v:groupContext="shape" transform="translate(41.0818,-17.0929)">
				<title>Sheet.1115</title>
				<path d="M1.34 605.8 L1.34 605.8 C1.34 605.8 0 612 0 612 C0 612 1.34 605.8 1.34 605.8 Z" class="st21"/>
			</g>
			<g id="shape1116-146" v:mID="1116" v:groupContext="shape" transform="translate(29.1486,-2.72259)">
				<title>Sheet.1116</title>
				<path d="M0 611.97 C0 611.97 2.3 612 3.77 612 C2.66 612 0.82 611.98 0 611.97 C0 611.97 0 611.97 0 611.97 L0 611.97
							 Z" class="st21"/>
			</g>
			<g id="shape1117-148" v:mID="1117" v:groupContext="shape" transform="translate(36.3272,-20.4277)">
				<title>Sheet.1117</title>
				<path d="M0.65 609.14 C0.65 609.14 0 612 0 612 C0 612 0.65 609.14 0.65 609.14 Z" class="st21"/>
			</g>
			<g id="shape1118-150" v:mID="1118" v:groupContext="shape" transform="translate(28.7738,-2.72282)">
				<title>Sheet.1118</title>
				<path d="M13.32 591.02 L8.71 591.02 C8.48 591.02 8.25 591.21 8.2 591.43 C8.2 591.43 7.55 594.3 7.55 594.3 C7.55 594.3
							 6.91 597.16 6.91 597.16 C6.86 597.39 6.78 597.76 6.73 597.98 C6.73 597.98 6.11 600.91 6.11 600.91 C6.11
							 600.91 5.48 603.83 5.48 603.83 C5.44 604.05 5.34 604.42 5.26 604.64 C5.26 604.64 4.4 607.2 2.96 607.17
							 C2.9 607.17 2.84 607.17 2.78 607.16 C2.08 607.15 1.53 607.14 1.53 607.14 L1.52 607.14 C1.29 607.14 1.06
							 607.32 1.01 607.54 C1.01 607.54 0.53 609.55 0.53 609.55 C0.53 609.55 0.05 611.56 0.05 611.56 C0 611.78
							 0.14 611.97 0.37 611.97 C1.19 611.98 3.03 612 4.14 612 C7.76 612 9.66 610 10.88 604.24 C10.88 604.24
							 12.31 597.63 12.31 597.63 C12.31 597.63 13.65 591.43 13.65 591.43 C13.7 591.21 13.55 591.02 13.32 591.02
							 L13.32 591.02 Z" class="st21"/>
			</g>
			<g id="shape1119-152" v:mID="1119" v:groupContext="shape" transform="translate(107.119,-10.4906)">
				<title>Sheet.1119</title>
				<path d="M0.38 612 C0.15 612 0 611.81 0.05 611.59 C0.05 611.59 3.51 595.36 3.51 595.36 L0.38 612 Z" class="st22"/>
				<path d="M0.38 612 C0.15 612 0 611.81 0.05 611.59 C0.05 611.59 3.51 595.36 3.51 595.36" class="st19"/>
			</g>
			<g id="shape1120-155" v:mID="1120" v:groupContext="shape" transform="translate(112.314,-10.9026)">
				<title>Sheet.1120</title>
				<path d="M0 612 C0 612 1.4 605.08 1.4 605.08 C1.4 605.08 0 612 0 612 Z" class="st21"/>
			</g>
			<g id="shape1121-157" v:mID="1121" v:groupContext="shape" transform="translate(107.119,-10.4905)">
				<title>Sheet.1121</title>
				<path d="M0.1 611.79 C0.07 611.68 0.09 611.4 0.14 611.18 C0.14 611.18 1.78 603.48 1.78 603.48 C1.78 603.48 0.05 611.59
							 0.05 611.59 C0 611.81 0.15 612 0.38 612 L0.8 612 C0.57 612 0.13 611.91 0.1 611.79 L0.1 611.79 Z"
						class="st21"/>
			</g>
			<g id="shape1122-159" v:mID="1122" v:groupContext="shape" transform="translate(111.391,-10.4906)">
				<title>Sheet.1122</title>
				<path d="M0.65 611.91 C0.52 611.96 0.23 612 0 612 L0.42 612 C0.65 612 0.88 611.81 0.92 611.59 C0.92 611.59 1.01 611.18
							 1.01 611.18 C0.96 611.4 0.78 611.86 0.65 611.91 L0.65 611.91 Z" class="st21"/>
			</g>
			<g id="shape1123-161" v:mID="1123" v:groupContext="shape" transform="translate(113.015,-14.365)">
				<title>Sheet.1123</title>
				<path d="M0 612 C0 612 0.62 608.94 0.62 608.94 C0.62 608.95 0.62 608.95 0.62 608.95 C0.62 608.95 0 612 0 612 L0 612
							 Z" class="st21"/>
			</g>
			<g id="shape1124-163" v:mID="1124" v:groupContext="shape" transform="translate(126.549,-24.8416)">
				<title>Sheet.1124</title>
				<path d="M0.13 610.8 C0.13 610.8 0.32 611.59 0.32 611.59 C0.38 611.82 0.23 612 0 612 L0.13 610.8 Z" class="st22"/>
				<path d="M0.13 610.8 C0.13 610.8 0.32 611.59 0.32 611.59 C0.38 611.82 0.23 612 0 612" class="st19"/>
			</g>
			<g id="shape1125-166" v:mID="1125" v:groupContext="shape" transform="translate(112.398,-11.3138)">
				<title>Sheet.1125</title>
				<path d="M0 612 C0 612 0.62 608.95 0.62 608.95 C0.62 608.95 0 612 0 612 Z" class="st21"/>
			</g>
			<g id="shape1126-168" v:mID="1126" v:groupContext="shape" transform="translate(126.492,-26.0393)">
				<title>Sheet.1126</title>
				<path d="M0 611.19 C0 611.19 0.19 612 0.19 612 C0.19 612 0 611.19 0 611.19 Z" class="st21"/>
			</g>
			<g id="shape1127-170" v:mID="1127" v:groupContext="shape" transform="translate(113.633,-17.421)">
				<title>Sheet.1127</title>
				<path d="M0 612 C0.05 611.77 0.12 611.41 0.17 611.18 C0.17 611.18 0.83 608.09 0.83 608.09 C0.83 608.09 0.08 611.59
							 0.08 611.59 C0.08 611.59 0 612 0 612 L0 612 Z" class="st21"/>
			</g>
			<g id="shape1128-172" v:mID="1128" v:groupContext="shape" transform="translate(108.901,-19.0137)">
				<title>Sheet.1128</title>
				<path d="M1.79 603.62 C1.74 603.84 1.68 604.12 1.64 604.3 C1.64 604.3 0 612 0 612 C0 612 1.73 603.89 1.73 603.89
							 C1.73 603.89 1.79 603.62 1.79 603.62 L1.79 603.62 Z" class="st21"/>
			</g>
			<g id="shape1129-174" v:mID="1129" v:groupContext="shape" transform="translate(107.191,-10.4905)">
				<title>Sheet.1129</title>
				<path d="M19.68 597.24 C19.68 597.24 19.49 596.45 19.49 596.45 C19.49 596.45 19.3 595.64 19.3 595.64 C19.3 595.64
							 19.21 595.23 19.21 595.23 C18.83 593.78 17.73 592.94 15.35 592.94 C15.35 592.94 11.64 592.94 11.64 592.94
							 C11.64 592.94 8.22 592.94 8.22 592.94 L7.93 592.94 L4.37 592.94 C4.14 592.94 3.92 593.12 3.87 593.35
							 L3.87 593.35 C3.87 593.35 3.7 594.15 3.7 594.15 C3.7 594.15 3.5 595.1 3.5 595.1 C3.5 595.1 3.44 595.36
							 3.44 595.36 C3.44 595.36 1.71 603.48 1.71 603.48 C1.71 603.48 0.07 611.18 0.07 611.18 C0.02 611.4 0
							 611.68 0.03 611.79 C0.06 611.91 0.5 612 0.73 612 L4.2 612 C4.43 612 4.72 611.96 4.85 611.91 C4.97 611.86
							 5.16 611.4 5.21 611.18 C5.21 611.18 5.82 608.13 5.82 608.13 C5.82 608.13 6.44 605.08 6.44 605.08 C6.44
							 605.07 6.44 605.07 6.44 605.07 C6.44 605.07 6.52 604.66 6.52 604.66 C6.52 604.66 7.27 601.16 7.27 601.16
							 C7.27 601.16 7.93 598.06 7.93 598.06 C7.98 597.84 8.21 597.65 8.44 597.65 C8.44 597.65 19.36 597.65
							 19.36 597.65 C19.59 597.65 19.73 597.46 19.68 597.24 L19.68 597.24 Z" class="st21"/>
			</g>
			<g id="shape1130-176" v:mID="1130" v:groupContext="shape" transform="translate(121.459,-10.4818)">
				<title>Sheet.1130</title>
				<path d="M19.47 590.1 C19.24 590.1 18.86 590.11 18.63 590.11 L15.13 590.11 C14.9 590.11 14.61 590.26 14.48 590.45
							 C14.48 590.45 6.75 601.77 6.75 601.77 C6.62 601.96 6.47 601.94 6.42 601.71 C6.42 601.71 5.85 599.22
							 5.85 599.22 C5.8 598.99 5.57 598.81 5.34 598.81 L0.37 598.81 C0.14 598.81 0 598.99 0.06 599.21 C0.06
							 599.21 2.29 607.01 2.29 607.01 C2.35 607.23 2.36 607.6 2.3 607.82 C2.3 607.82 1.33 611.59 1.33 611.59
							 C1.27 611.82 1.41 612 1.65 612 L6.56 612 C6.79 612 7.02 611.82 7.08 611.59 C7.08 611.59 8.05 607.82
							 8.05 607.82 C8.11 607.6 8.27 607.26 8.41 607.08 C8.41 607.08 20.95 590.43 20.95 590.43 C21.09 590.24
							 21.01 590.09 20.78 590.09 C20.78 590.09 19.47 590.1 19.47 590.1 L19.47 590.1 Z" class="st21"/>
			</g>
			<g id="shape1131-178" v:mID="1131" v:groupContext="shape" transform="translate(87.4651,-10.2565)">
				<title>Sheet.1131</title>
				<path d="M14 599.64 C14 599.64 14 599.64 14 599.64 C13.97 599.89 13.74 600.07 13.51 600.07 L7.21 600.07 C6.99 600.07
							 6.88 599.92 6.91 599.74 C6.91 599.74 6.91 599.73 6.92 599.73 C6.92 599.73 6.91 599.73 6.91 599.73 C6.91
							 599.72 6.91 599.72 6.92 599.71 C6.92 599.71 6.93 599.66 6.95 599.6 C7.55 598 8.77 596.95 11.07 596.95
							 C13.67 596.95 14.17 598.22 14 599.64 L14 599.64 ZM12.15 592.37 C4.06 592.37 2.15 597.28 1.07 602.23
							 C0 607.28 0.09 612 8.46 612 L8.75 612 C8.78 612 8.81 612 8.83 612 L9.07 612 L9.15 612 L9.37 612 C9.41
							 612 9.44 612 9.47 612 C9.56 612 9.64 612 9.72 612 L9.78 612 C10.11 612 10.45 612 10.79 611.99 L10.8
							 611.99 C13.01 611.99 15.23 611.97 16.13 611.96 C16.36 611.96 16.58 611.77 16.63 611.55 C16.63 611.55
							 16.97 609.89 16.97 609.89 C16.97 609.89 17.03 609.57 17.03 609.57 C17.03 609.57 17.44 607.6 17.44 607.6
							 C17.48 607.37 17.33 607.19 17.1 607.19 L9.58 607.19 C6.59 607.19 5.7 606.39 6.03 604.06 L18.05 604.06
							 C18.05 604.06 18.05 604.06 18.05 604.06 C18.05 604.06 18.05 604.06 18.06 604.06 C18.25 604.05 18.42
							 603.92 18.49 603.75 C18.51 603.71 18.52 603.68 18.52 603.64 C18.52 603.64 18.52 603.64 18.52 603.64
							 C20.31 596.91 19.8 592.37 12.15 592.37 L12.15 592.37 Z" class="st21"/>
			</g>
			<g id="shape1132-180" v:mID="1132" v:groupContext="shape" transform="translate(43.3905,-10.3505)">
				<title>Sheet.1132</title>
				<path d="M18.02 599.71 C18.02 599.71 17.9 600.11 17.9 600.11 C17.9 600.12 17.9 600.12 17.9 600.12 C17.9 600.12 16.99
							 603.33 16.99 603.33 C16.99 603.33 16.09 606.55 16.09 606.55 C16.02 606.77 15.78 606.95 15.55 606.95
							 L10.75 606.95 C7.1 606.95 6.22 604.1 7.1 599.9 C7.99 595.6 9.73 592.92 13.32 592.65 C18.22 592.28 19.2
							 595.73 18.02 599.71 L18.02 599.71 ZM21.31 606.71 C21.31 606.71 23.58 601.21 24.09 598.03 C24.79 593.78
							 22.66 587.61 14.44 587.61 C6.26 587.61 2.71 593.5 1.35 599.9 C0 606.35 1.78 612 9.91 611.95 C9.91 611.95
							 16.32 611.93 16.32 611.93 C16.32 611.93 22.32 611.91 22.32 611.91 C22.55 611.91 22.78 611.72 22.84 611.5
							 C22.84 611.5 23.89 607.52 23.89 607.52 C23.94 607.29 23.8 607.11 23.57 607.11 C23.57 607.11 22.57 607.1
							 22.57 607.1 C22.57 607.1 21.57 607.1 21.57 607.1 C21.37 607.09 21.26 606.97 21.29 606.8 C21.29 606.77
							 21.3 606.74 21.31 606.7 L21.31 606.71 Z" class="st21"/>
			</g>
			<g id="shape1133-182" v:mID="1133" v:groupContext="shape" transform="translate(104.632,-19.0507)">
				<title>Sheet.1133</title>
				<path d="M0.55 611.72 C0.55 611.88 0.43 612 0.28 612 C0.12 612 0 611.88 0 611.72 C0 611.57 0.12 611.45 0.28 611.45
							 C0.43 611.45 0.55 611.57 0.55 611.72 Z" class="st21"/>
			</g>
			<g id="shape1134-184" v:mID="1134" v:groupContext="shape" transform="translate(-1.43885E-013,-5.98874)">
				<title>Sheet.1134</title>
				<path d="M2.26 591.51 C0 594.76 0.28 598.98 2.01 602.43 C2.05 602.51 2.09 602.59 2.13 602.67 C2.16 602.72 2.18 602.78
							 2.21 602.83 C2.23 602.86 2.25 602.89 2.26 602.92 C2.29 602.97 2.32 603.02 2.35 603.08 C2.41 603.17 2.46
							 603.27 2.52 603.36 C2.55 603.41 2.58 603.46 2.61 603.51 C2.67 603.62 2.74 603.71 2.8 603.81 C2.83 603.86
							 2.86 603.9 2.88 603.94 C2.97 604.07 3.07 604.21 3.16 604.34 C3.16 604.34 3.17 604.35 3.17 604.35 C3.18
							 604.37 3.2 604.39 3.22 604.41 C3.3 604.53 3.38 604.64 3.47 604.75 C3.5 604.79 3.53 604.83 3.56 604.87
							 C3.64 604.96 3.72 605.06 3.8 605.15 C3.83 605.19 3.86 605.23 3.88 605.26 C3.99 605.39 4.1 605.51 4.21
							 605.63 C4.21 605.63 4.21 605.64 4.22 605.64 C4.22 605.64 4.22 605.65 4.23 605.65 C4.34 605.77 4.45 605.89
							 4.56 606 C4.59 606.04 4.63 606.07 4.66 606.11 C4.75 606.19 4.84 606.28 4.93 606.37 C4.96 606.4 5 606.44
							 5.04 606.47 C5.15 606.58 5.27 606.69 5.4 606.8 C5.4 606.8 5.4 606.8 5.4 606.8 C5.42 606.82 5.45 606.84
							 5.47 606.86 C5.57 606.95 5.68 607.04 5.79 607.13 C5.84 607.17 5.88 607.2 5.93 607.24 C6.02 607.31 6.11
							 607.38 6.2 607.45 C6.25 607.49 6.3 607.53 6.35 607.57 C6.45 607.64 6.55 607.71 6.66 607.79 C6.69 607.81
							 6.73 607.84 6.77 607.87 C6.78 607.87 6.79 607.88 6.8 607.89 C6.9 607.95 7 608.02 7.1 608.08 C7.14 608.11
							 7.18 608.14 7.23 608.17 C7.38 608.27 7.53 608.36 7.69 608.46 C7.73 608.48 7.78 608.5 7.82 608.53 C7.94
							 608.6 8.05 608.66 8.17 608.72 C8.24 608.76 8.3 608.79 8.37 608.82 C8.45 608.87 8.53 608.91 8.62 608.96
							 C8.63 608.96 8.65 608.97 8.67 608.98 C8.71 609 8.74 609.02 8.78 609.03 C8.91 609.1 9.04 609.16 9.17
							 609.22 C9.2 609.23 9.23 609.24 9.26 609.25 C9.41 609.32 9.56 609.38 9.72 609.45 C9.76 609.46 9.8 609.48
							 9.83 609.49 C9.98 609.55 10.12 609.6 10.27 609.65 C10.29 609.66 10.31 609.67 10.33 609.67 C10.49 609.73
							 10.65 609.78 10.81 609.83 C10.85 609.84 10.89 609.86 10.93 609.87 C11.1 609.92 11.26 609.98 11.43 610.01
							 C22.35 612 25.53 603.45 25.53 603.45 C22.86 606.92 18.13 607.83 13.65 606.81 C13.48 606.77 13.32 606.72
							 13.15 606.67 C13.11 606.66 13.07 606.65 13.03 606.64 C12.87 606.59 12.71 606.53 12.55 606.48 C12.52
							 606.47 12.5 606.46 12.48 606.45 C12.34 606.4 12.2 606.35 12.06 606.3 C12.02 606.28 11.98 606.27 11.94
							 606.25 C11.78 606.19 11.63 606.13 11.48 606.06 C11.45 606.05 11.42 606.03 11.39 606.02 C11.26 605.96
							 11.13 605.9 11 605.84 C10.96 605.82 10.93 605.8 10.89 605.79 C10.79 605.74 10.69 605.68 10.59 605.63
							 C10.52 605.6 10.46 605.57 10.39 605.53 C10.27 605.46 10.15 605.4 10.03 605.33 C9.99 605.31 9.95 605.28
							 9.91 605.26 C9.75 605.17 9.6 605.07 9.44 604.98 C9.4 604.95 9.36 604.92 9.32 604.89 C9.21 604.82 9.09
							 604.75 8.99 604.67 C8.95 604.65 8.91 604.62 8.88 604.6 C8.77 604.52 8.67 604.44 8.56 604.37 C8.52 604.33
							 8.47 604.3 8.42 604.26 C8.33 604.19 8.24 604.12 8.14 604.04 C8.1 604.01 8.06 603.97 8.02 603.94 C7.9
							 603.84 7.78 603.74 7.66 603.64 C7.65 603.63 7.64 603.62 7.62 603.61 C7.5 603.5 7.37 603.39 7.25 603.27
							 C7.22 603.24 7.18 603.21 7.15 603.17 C7.06 603.09 6.97 603 6.88 602.91 C6.85 602.88 6.81 602.84 6.78
							 602.81 C6.67 602.69 6.56 602.58 6.45 602.46 C6.44 602.45 6.44 602.45 6.43 602.44 C6.32 602.32 6.21 602.19
							 6.1 602.07 C6.07 602.03 6.04 602 6.02 601.96 C5.93 601.87 5.85 601.77 5.78 601.67 C5.75 601.63 5.72
							 601.6 5.69 601.56 C5.6 601.44 5.5 601.32 5.41 601.19 C2.93 597.8 2.03 593.12 4.02 589.28 L2.26 591.51
							 Z" class="st23"/>
				<path d="M2.26 591.51 C0 594.76 0.28 598.98 2.01 602.43 C2.05 602.51 2.09 602.59 2.13 602.67 C2.16 602.72 2.18 602.78
							 2.21 602.83 C2.23 602.86 2.25 602.89 2.26 602.92 C2.29 602.97 2.32 603.02 2.35 603.08 C2.41 603.17 2.46
							 603.27 2.52 603.36 C2.55 603.41 2.58 603.46 2.61 603.51 C2.67 603.62 2.74 603.71 2.8 603.81 C2.83 603.86
							 2.86 603.9 2.88 603.94 C2.97 604.07 3.07 604.21 3.16 604.34 C3.16 604.34 3.17 604.35 3.17 604.35 C3.18
							 604.37 3.2 604.39 3.22 604.41 C3.3 604.53 3.38 604.64 3.47 604.75 C3.5 604.79 3.53 604.83 3.56 604.87
							 C3.64 604.96 3.72 605.06 3.8 605.15 C3.83 605.19 3.86 605.23 3.88 605.26 C3.99 605.39 4.1 605.51 4.21
							 605.63 C4.21 605.63 4.21 605.64 4.22 605.64 C4.22 605.64 4.22 605.65 4.23 605.65 C4.34 605.77 4.45 605.89
							 4.56 606 C4.59 606.04 4.63 606.07 4.66 606.11 C4.75 606.19 4.84 606.28 4.93 606.37 C4.96 606.4 5 606.44
							 5.04 606.47 C5.15 606.58 5.27 606.69 5.4 606.8 C5.4 606.8 5.4 606.8 5.4 606.8 C5.42 606.82 5.45 606.84
							 5.47 606.86 C5.57 606.95 5.68 607.04 5.79 607.13 C5.84 607.17 5.88 607.2 5.93 607.24 C6.02 607.31 6.11
							 607.38 6.2 607.45 C6.25 607.49 6.3 607.53 6.35 607.57 C6.45 607.64 6.55 607.71 6.66 607.79 C6.69 607.81
							 6.73 607.84 6.77 607.87 C6.78 607.87 6.79 607.88 6.8 607.89 C6.9 607.95 7 608.02 7.1 608.08 C7.14 608.11
							 7.18 608.14 7.23 608.17 C7.38 608.27 7.53 608.36 7.69 608.46 C7.73 608.48 7.78 608.5 7.82 608.53 C7.94
							 608.6 8.05 608.66 8.17 608.72 C8.24 608.76 8.3 608.79 8.37 608.82 C8.45 608.87 8.53 608.91 8.62 608.96
							 C8.63 608.96 8.65 608.97 8.67 608.98 C8.71 609 8.74 609.02 8.78 609.03 C8.91 609.1 9.04 609.16 9.17
							 609.22 C9.2 609.23 9.23 609.24 9.26 609.25 C9.41 609.32 9.56 609.38 9.72 609.45 C9.76 609.46 9.8 609.48
							 9.83 609.49 C9.98 609.55 10.12 609.6 10.27 609.65 C10.29 609.66 10.31 609.67 10.33 609.67 C10.49 609.73
							 10.65 609.78 10.81 609.83 C10.85 609.84 10.89 609.86 10.93 609.87 C11.1 609.92 11.26 609.98 11.43 610.01
							 C22.35 612 25.53 603.45 25.53 603.45 C22.86 606.92 18.13 607.83 13.65 606.81 C13.48 606.77 13.32 606.72
							 13.15 606.67 C13.11 606.66 13.07 606.65 13.03 606.64 C12.87 606.59 12.71 606.53 12.55 606.48 C12.52
							 606.47 12.5 606.46 12.48 606.45 C12.34 606.4 12.2 606.35 12.06 606.3 C12.02 606.28 11.98 606.27 11.94
							 606.25 C11.78 606.19 11.63 606.13 11.48 606.06 C11.45 606.05 11.42 606.03 11.39 606.02 C11.26 605.96
							 11.13 605.9 11 605.84 C10.96 605.82 10.93 605.8 10.89 605.79 C10.79 605.74 10.69 605.68 10.59 605.63
							 C10.52 605.6 10.46 605.57 10.39 605.53 C10.27 605.46 10.15 605.4 10.03 605.33 C9.99 605.31 9.95 605.28
							 9.91 605.26 C9.75 605.17 9.6 605.07 9.44 604.98 C9.4 604.95 9.36 604.92 9.32 604.89 C9.21 604.82 9.09
							 604.75 8.99 604.67 C8.95 604.65 8.91 604.62 8.88 604.6 C8.77 604.52 8.67 604.44 8.56 604.37 C8.52 604.33
							 8.47 604.3 8.42 604.26 C8.33 604.19 8.24 604.12 8.14 604.04 C8.1 604.01 8.06 603.97 8.02 603.94 C7.9
							 603.84 7.78 603.74 7.66 603.64 C7.65 603.63 7.64 603.62 7.62 603.61 C7.5 603.5 7.37 603.39 7.25 603.27
							 C7.22 603.24 7.18 603.21 7.15 603.17 C7.06 603.09 6.97 603 6.88 602.91 C6.85 602.88 6.81 602.84 6.78
							 602.81 C6.67 602.69 6.56 602.58 6.45 602.46 C6.44 602.45 6.44 602.45 6.43 602.44 C6.32 602.32 6.21 602.19
							 6.1 602.07 C6.07 602.03 6.04 602 6.02 601.96 C5.93 601.87 5.85 601.77 5.78 601.67 C5.75 601.63 5.72
							 601.6 5.69 601.56 C5.6 601.44 5.5 601.32 5.41 601.19 C2.93 597.8 2.03 593.12 4.02 589.28" class="st19"/>
			</g>
			<g id="shape1135-187" v:mID="1135" v:groupContext="shape" transform="translate(7.63411,-14.4271)">
				<title>Sheet.1135</title>
				<path d="M1.63 597.22 C0 599.56 0.09 602.71 1.36 605.2 C1.58 605.61 1.82 606.02 2.08 606.4 C2.33 606.75 2.6 607.17
							 2.93 607.45 C3.04 607.58 3.17 607.71 3.29 607.83 C3.32 607.86 3.36 607.89 3.39 607.93 C3.51 608.04 3.63
							 608.16 3.76 608.27 C3.77 608.28 3.77 608.28 3.78 608.29 C3.78 608.29 3.78 608.29 3.78 608.29 C3.92 608.42
							 4.07 608.54 4.22 608.65 C4.25 608.68 4.28 608.7 4.32 608.73 C4.47 608.84 4.62 608.96 4.78 609.06 C4.78
							 609.07 4.78 609.07 4.79 609.07 C4.86 609.12 4.93 609.17 5 609.21 C5.03 609.23 5.06 609.26 5.1 609.28
							 C5.21 609.35 5.32 609.42 5.43 609.48 C5.45 609.49 5.47 609.5 5.48 609.51 C5.58 609.57 5.68 609.63 5.78
							 609.68 C5.82 609.7 5.85 609.72 5.89 609.74 C5.96 609.77 6.03 609.81 6.1 609.84 C6.11 609.85 6.12 609.85
							 6.13 609.86 C6.27 609.93 6.42 610 6.57 610.06 C6.6 610.08 6.63 610.09 6.66 610.1 C6.78 610.15 6.9 610.2
							 7.02 610.25 C7.07 610.27 7.12 610.29 7.18 610.3 C7.28 610.34 7.39 610.38 7.5 610.42 C7.55 610.43 7.6
							 610.45 7.65 610.47 C7.81 610.51 7.97 610.58 8.13 610.6 C16.56 612 18.51 605.51 18.51 605.51 C16.75 608.04
							 13.35 609.24 9.73 608.3 C9.57 608.26 9.41 608.21 9.25 608.16 C9.2 608.15 9.16 608.13 9.11 608.12 C9
							 608.08 8.88 608.04 8.77 608 C8.72 607.98 8.67 607.96 8.62 607.94 C8.5 607.9 8.38 607.85 8.26 607.8 C8.23
							 607.79 8.2 607.77 8.17 607.76 C8.02 607.69 7.87 607.63 7.73 607.55 C7.65 607.52 7.58 607.48 7.51 607.44
							 C7.46 607.42 7.42 607.4 7.38 607.38 C7.28 607.33 7.19 607.27 7.1 607.22 C7.08 607.21 7.06 607.19 7.03
							 607.18 C6.92 607.11 6.81 607.05 6.69 606.97 C6.66 606.95 6.63 606.93 6.59 606.91 C6.52 606.86 6.45 606.81
							 6.37 606.76 C6.22 606.65 6.07 606.54 5.92 606.43 C5.88 606.4 5.85 606.38 5.82 606.35 C4.23 605.09 2.97
							 603.38 2.37 601.44 C1.75 599.43 1.88 597.17 2.97 595.33 L1.63 597.22 Z" class="st23"/>
				<path d="M1.63 597.22 C0 599.56 0.09 602.71 1.36 605.2 C1.58 605.61 1.82 606.02 2.08 606.4 C2.33 606.75 2.6 607.17
							 2.93 607.45 C3.04 607.58 3.17 607.71 3.29 607.83 C3.32 607.86 3.36 607.89 3.39 607.93 C3.51 608.04 3.63
							 608.16 3.76 608.27 C3.77 608.28 3.77 608.28 3.78 608.29 C3.78 608.29 3.78 608.29 3.78 608.29 C3.92 608.42
							 4.07 608.54 4.22 608.65 C4.25 608.68 4.28 608.7 4.32 608.73 C4.47 608.84 4.62 608.96 4.78 609.06 C4.78
							 609.07 4.78 609.07 4.79 609.07 C4.86 609.12 4.93 609.17 5 609.21 C5.03 609.23 5.06 609.26 5.1 609.28
							 C5.21 609.35 5.32 609.42 5.43 609.48 C5.45 609.49 5.47 609.5 5.48 609.51 C5.58 609.57 5.68 609.63 5.78
							 609.68 C5.82 609.7 5.85 609.72 5.89 609.74 C5.96 609.77 6.03 609.81 6.1 609.84 C6.11 609.85 6.12 609.85
							 6.13 609.86 C6.27 609.93 6.42 610 6.57 610.06 C6.6 610.08 6.63 610.09 6.66 610.1 C6.78 610.15 6.9 610.2
							 7.02 610.25 C7.07 610.27 7.12 610.29 7.18 610.3 C7.28 610.34 7.39 610.38 7.5 610.42 C7.55 610.43 7.6
							 610.45 7.65 610.47 C7.81 610.51 7.97 610.58 8.13 610.6 C16.56 612 18.51 605.51 18.51 605.51 C16.75 608.04
							 13.35 609.24 9.73 608.3 C9.57 608.26 9.41 608.21 9.25 608.16 C9.2 608.15 9.16 608.13 9.11 608.12 C9
							 608.08 8.88 608.04 8.77 608 C8.72 607.98 8.67 607.96 8.62 607.94 C8.5 607.9 8.38 607.85 8.26 607.8 C8.23
							 607.79 8.2 607.77 8.17 607.76 C8.02 607.69 7.87 607.63 7.73 607.55 C7.65 607.52 7.58 607.48 7.51 607.44
							 C7.46 607.42 7.42 607.4 7.38 607.38 C7.28 607.33 7.19 607.27 7.1 607.22 C7.08 607.21 7.06 607.19 7.03
							 607.18 C6.92 607.11 6.81 607.05 6.69 606.97 C6.66 606.95 6.63 606.93 6.59 606.91 C6.52 606.86 6.45 606.81
							 6.37 606.76 C6.22 606.65 6.07 606.54 5.92 606.43 C5.88 606.4 5.85 606.38 5.82 606.35 C4.23 605.09 2.97
							 603.38 2.37 601.44 C1.75 599.43 1.88 597.17 2.97 595.33" class="st19"/>
			</g>
			<g id="shape1136-190" v:mID="1136" v:groupContext="shape" transform="translate(14.1049,-21.845)">
				<title>Sheet.1136</title>
				<path d="M1.06 602.59 C0.09 604.01 0 605.77 0.67 607.33 C1.37 608.99 2.82 610.29 4.5 610.91 C4.57 610.94 4.64 610.96
							 4.71 610.98 C4.74 610.99 4.77 611 4.8 611.01 C4.9 611.04 5 611.08 5.1 611.1 C9.76 612 11.02 608.71 11.36
							 608.23 C10.25 609.82 8.39 610.2 6.11 609.65 C5.93 609.61 5.73 609.54 5.56 609.48 C5.34 609.4 5.12 609.31
							 4.9 609.21 C4.5 609.01 4.11 608.78 3.75 608.51 C1.71 606.96 0.45 604 1.78 601.6 L1.06 602.59 Z"
						class="st23"/>
				<path d="M1.06 602.59 C0.09 604.01 0 605.77 0.67 607.33 C1.37 608.99 2.82 610.29 4.5 610.91 C4.57 610.94 4.64 610.96
							 4.71 610.98 C4.74 610.99 4.77 611 4.8 611.01 C4.9 611.04 5 611.08 5.1 611.1 C9.76 612 11.02 608.71 11.36
							 608.23 C10.25 609.82 8.39 610.2 6.11 609.65 C5.93 609.61 5.73 609.54 5.56 609.48 C5.34 609.4 5.12 609.31
							 4.9 609.21 C4.5 609.01 4.11 608.78 3.75 608.51 C1.71 606.96 0.45 604 1.78 601.6" class="st19"/>
			</g>
			<g id="shape1137-193" v:mID="1137" v:groupContext="shape" transform="translate(62.3288,-0.606298)">
				<title>Sheet.1137</title>
				<path d="M5.26 608.94 C5.26 608.94 3.92 612 3.92 612 L2.44 612 C2.44 612 2.56 609.22 2.56 609.22 C2.56 609.22 1.47
							 612 1.47 612 L0.04 612 C0.04 612 0 608.94 0 608.94 C0 608.94 0.16 608.19 0.16 608.19 L1.17 608.19 C1.17
							 608.19 0.98 611.21 0.98 611.21 C0.98 611.21 2.11 608.19 2.11 608.19 L3.52 608.19 C3.52 608.19 3.42 611.25
							 3.42 611.25 C3.42 611.25 4.54 608.19 4.54 608.19 L5.42 608.19 C5.42 608.19 5.26 608.94 5.26 608.94 L5.26
							 608.94 Z" class="st24"/>
			</g>
			<g id="shape1138-195" v:mID="1138" v:groupContext="shape" transform="translate(67.6299,-0.605675)">
				<title>Sheet.1138</title>
				<path d="M2.3 609.85 C2.43 609.25 2.39 609.14 2.09 609.14 L1.62 609.14 C1.62 609.14 1.32 610.54 1.32 610.54 C1.32
							 610.54 0.87 612 0.87 612 L0 612 C0 612 0.71 608.68 0.71 608.68 C0.71 608.68 0.81 608.2 0.81 608.2 L1.6
							 608.2 C1.6 608.2 1.71 608.42 1.71 608.42 C1.71 608.42 2.16 608.15 2.61 608.15 C3.56 608.15 3.49 608.87
							 3.28 609.85 L2.3 609.85 L2.3 609.85 Z" class="st24"/>
			</g>
			<g id="shape1139-197" v:mID="1139" v:groupContext="shape" transform="translate(71.3487,-0.606027)">
				<title>Sheet.1139</title>
				<path d="M1.4 607.71 C1.02 607.71 0.77 607.6 0.87 607.14 C0.97 606.67 1.27 606.56 1.64 606.56 C2.01 606.56 2.26 606.67
							 2.16 607.14 C2.07 607.59 1.77 607.71 1.4 607.71 L1.4 607.71 ZM0.99 612 L0.13 612 C0.13 612 0.3 610.51
							 0.3 610.51 C0.3 610.51 0.6 609.13 0.6 609.13 C0.6 609.13 0 609 0 609 C0 609 0.17 608.19 0.17 608.19
							 L1.8 608.19 C1.8 608.19 0.99 612 0.99 612 L0.99 612 Z" class="st24"/>
			</g>
			<g id="shape1140-199" v:mID="1140" v:groupContext="shape" transform="translate(73.3888,-0.551536)">
				<title>Sheet.1140</title>
				<path d="M2.67 608.94 C2.67 608.94 1.59 609.07 1.59 609.07 C1.59 609.07 1.29 610.53 1.29 610.53 C1.2 610.93 1.2 611.04
							 1.56 611.04 L2.27 611.04 C2.27 611.04 2.12 611.8 2.12 611.8 C2.12 611.8 1.47 612 1.19 612 C0.09 612
							 0.1 611.39 0.3 610.49 C0.3 610.49 0.6 609.06 0.6 609.06 C0.6 609.06 0 608.93 0 608.93 C0 608.93 0.18
							 608.12 0.18 608.12 L0.8 608.12 C0.8 608.12 1.16 607.16 1.16 607.16 L2 607.16 C2 607.16 1.8 608.12 1.8
							 608.12 L2.84 608.12 C2.84 608.12 2.67 608.94 2.67 608.94 L2.67 608.94 Z" class="st24"/>
			</g>
			<g id="shape1141-201" v:mID="1141" v:groupContext="shape" transform="translate(76.072,-0.559639)">
				<title>Sheet.1141</title>
				<path d="M2.21 609 C1.71 609 1.44 609.26 1.34 609.73 C1.34 609.73 2.78 609.61 2.78 609.61 C2.84 609.29 2.78 609 2.21
							 609 L2.21 609 ZM1.2 610.42 C1.14 610.88 1.31 611.04 1.91 611.04 L3.41 611.04 C3.41 611.04 3.26 611.75
							 3.26 611.75 C3.26 611.75 2.36 612 1.69 612 C0.02 612 0 611.06 0.21 610.05 C0.43 609.06 0.81 608.09 2.42
							 608.09 C3.98 608.09 4.05 609.03 3.67 610.42 L1.2 610.42 L1.2 610.42 Z" class="st24"/>
			</g>
			<g id="shape1142-203" v:mID="1142" v:groupContext="shape" transform="translate(82.3054,-0.60684)">
				<title>Sheet.1142</title>
				<path d="M0.86 612 L0 612 C0 612 0.17 610.51 0.17 610.51 C0.17 610.51 0.77 607.68 0.77 607.68 C0.77 607.68 0.18 607.54
							 0.18 607.54 C0.18 607.54 0.35 606.73 0.35 606.73 L1.98 606.73 C1.98 606.73 0.86 612 0.86 612 L0.86 612
							 Z" class="st24"/>
			</g>
			<g id="shape1143-205" v:mID="1143" v:groupContext="shape" transform="translate(84.0499,-0.559639)">
				<title>Sheet.1143</title>
				<path d="M2.21 609 C1.71 609 1.44 609.26 1.34 609.73 C1.34 609.73 2.78 609.61 2.78 609.61 C2.84 609.29 2.78 609 2.21
							 609 L2.21 609 ZM1.2 610.42 C1.14 610.88 1.31 611.04 1.91 611.04 L3.41 611.04 C3.41 611.04 3.26 611.75
							 3.26 611.75 C3.26 611.75 2.36 612 1.69 612 C0.02 612 0 611.06 0.21 610.05 C0.43 609.06 0.81 608.09 2.42
							 608.09 C3.98 608.09 4.05 609.03 3.67 610.42 L1.2 610.42 L1.2 610.42 Z" class="st24"/>
			</g>
			<g id="shape1144-207" v:mID="1144" v:groupContext="shape" transform="translate(88.0831,-0.542003)">
				<title>Sheet.1144</title>
				<path d="M3.57 609.03 C3.57 609.03 2.48 609.04 2.18 609.04 C1.55 609.04 1.48 609.23 1.44 609.44 C1.44 609.44 1.4
							 609.62 1.4 609.62 C1.4 609.62 3.41 609.77 3.41 609.77 C3.41 609.77 3.42 610.42 3.34 610.78 C3.21 611.39
							 2.59 612 1.46 612 C0.9 612 0 611.79 0 611.79 C0 611.79 0.16 611.05 0.16 611.05 L1.55 611.05 C2.16 611.05
							 2.25 610.88 2.28 610.71 C2.28 610.71 2.33 610.47 2.33 610.47 C2.33 610.47 0.35 610.32 0.35 610.32 C0.35
							 610.32 0.28 609.83 0.38 609.34 C0.53 608.66 1.15 608.09 2.27 608.09 C2.83 608.09 3.74 608.29 3.74 608.29
							 C3.74 608.29 3.57 609.03 3.57 609.03 L3.57 609.03 Z" class="st24"/>
			</g>
			<g id="shape1145-209" v:mID="1145" v:groupContext="shape" transform="translate(91.8299,-0.542003)">
				<title>Sheet.1145</title>
				<path d="M3.57 609.03 C3.57 609.03 2.48 609.04 2.18 609.04 C1.55 609.04 1.48 609.23 1.44 609.44 C1.44 609.44 1.4
							 609.62 1.4 609.62 C1.4 609.62 3.41 609.77 3.41 609.77 C3.41 609.77 3.42 610.42 3.34 610.78 C3.21 611.39
							 2.59 612 1.46 612 C0.9 612 0 611.79 0 611.79 C0 611.79 0.16 611.05 0.16 611.05 L1.55 611.05 C2.16 611.05
							 2.25 610.88 2.28 610.71 C2.28 610.71 2.33 610.47 2.33 610.47 C2.33 610.47 0.35 610.32 0.35 610.32 C0.35
							 610.32 0.28 609.83 0.38 609.34 C0.53 608.66 1.15 608.09 2.27 608.09 C2.83 608.09 3.74 608.29 3.74 608.29
							 C3.74 608.29 3.57 609.03 3.57 609.03 L3.57 609.03 Z" class="st24"/>
			</g>
			<g id="shape1146-211" v:mID="1146" v:groupContext="shape" transform="translate(95.4444,0)">
				<title>Sheet.1146</title>
				<path d="M1.13 612 L0.38 612 C0.38 612 0.41 611.44 0.41 611.44 C0.14 611.42 0 611.23 0.07 610.9 C0.17 610.43 0.46
							 610.32 0.84 610.32 C1.21 610.32 1.46 610.43 1.36 610.9 C1.36 610.9 1.13 612 1.13 612 L1.13 612 Z"
						class="st24"/>
			</g>
			<g id="shape1147-213" v:mID="1147" v:groupContext="shape" transform="translate(99.4319,-0.559666)">
				<title>Sheet.1147</title>
				<path d="M2.12 609.08 C1.57 609.08 1.37 609.42 1.24 610.03 C1.11 610.65 1.15 611.01 1.71 611.01 L2.48 611.01 C2.48
							 611.01 2.91 609.08 2.91 609.08 L2.12 609.08 ZM3.4 611.46 C3.4 611.46 3.3 611.95 3.3 611.95 C3.3 611.95
							 2.52 611.94 2.52 611.94 C2.52 611.94 2.4 611.7 2.4 611.7 C2.4 611.7 1.71 612 1.25 612 C0.06 612 0 611.02
							 0.21 610.03 C0.43 609.03 0.89 608.08 2.08 608.08 C2.51 608.08 3.08 608.29 3.08 608.29 C3.08 608.29 3.56
							 606.68 3.56 606.68 L4.42 606.68 C4.42 606.68 3.4 611.46 3.4 611.46 L3.4 611.46 Z" class="st24"/>
			</g>
			<g id="shape1148-215" v:mID="1148" v:groupContext="shape" transform="translate(103.625,-0.550493)">
				<title>Sheet.1148</title>
				<path d="M2.29 609.04 C1.57 609.04 1.33 609.45 1.2 610.04 C1.08 610.65 1.14 611.06 1.85 611.06 C2.6 611.06 2.82 610.66
							 2.95 610.04 C3.08 609.46 3.05 609.04 2.29 609.04 L2.29 609.04 ZM1.66 612 C0.12 612 0 611.04 0.21 610.04
							 C0.42 609.05 0.96 608.1 2.5 608.1 C4.03 608.1 4.17 609.05 3.95 610.04 C3.74 611.06 3.2 612 1.66 612
							 Z" class="st24"/>
			</g>
			<g id="shape1149-217" v:mID="1149" v:groupContext="shape" transform="translate(109.907,-0.606767)">
				<title>Sheet.1149</title>
				<path d="M4.1 612 C4.1 612 4.27 610.53 4.27 610.53 C4.27 610.53 4.35 610.11 4.35 610.11 C4.47 609.55 4.55 609.14
							 3.96 609.14 L3.5 609.14 C3.52 609.43 3.47 609.75 3.39 610.1 C3.39 610.1 2.99 612 2.99 612 L2.13 612
							 C2.13 612 2.29 610.53 2.29 610.53 C2.29 610.53 2.38 610.11 2.38 610.11 C2.5 609.55 2.57 609.14 1.99
							 609.14 L1.61 609.14 C1.61 609.14 1 612 1 612 L0 612 C0 612 0.81 608.19 0.81 608.19 L1.59 608.19 C1.59
							 608.19 1.71 608.42 1.71 608.42 C1.71 608.42 2.25 608.14 2.67 608.14 C3 608.14 3.24 608.29 3.33 608.48
							 C3.51 608.38 4.04 608.14 4.43 608.14 C5.62 608.14 5.58 609.11 5.37 610.1 C5.37 610.1 4.97 612 4.97 612
							 L4.1 612 L4.1 612 Z" class="st24"/>
			</g>
			<g id="shape1150-219" v:mID="1150" v:groupContext="shape" transform="translate(115.675,-0.550493)">
				<title>Sheet.1150</title>
				<path d="M2.29 609.04 C1.57 609.04 1.33 609.45 1.2 610.04 C1.08 610.65 1.14 611.06 1.85 611.06 C2.6 611.06 2.82 610.66
							 2.95 610.04 C3.08 609.46 3.05 609.04 2.29 609.04 ZM1.66 612 C0.12 612 0 611.04 0.21 610.04 C0.42 609.05
							 0.96 608.1 2.5 608.1 C4.03 608.1 4.17 609.05 3.95 610.04 C3.74 611.06 3.2 612 1.66 612 Z" class="st24"/>
			</g>
			<g id="shape1151-221" v:mID="1151" v:groupContext="shape" transform="translate(119.913,-0.605675)">
				<title>Sheet.1151</title>
				<path d="M2.3 609.85 C2.43 609.25 2.39 609.14 2.09 609.14 L1.62 609.14 C1.62 609.14 1.32 610.54 1.32 610.54 C1.32
							 610.54 0.87 612 0.87 612 L0 612 C0 612 0.71 608.68 0.71 608.68 C0.71 608.68 0.81 608.2 0.81 608.2 L1.6
							 608.2 C1.6 608.2 1.71 608.42 1.71 608.42 C1.71 608.42 2.16 608.15 2.61 608.15 C3.56 608.15 3.48 608.87
							 3.28 609.85 L2.3 609.85 L2.3 609.85 Z" class="st24"/>
			</g>
			<g id="shape1152-223" v:mID="1152" v:groupContext="shape" transform="translate(123.344,-0.559639)">
				<title>Sheet.1152</title>
				<path d="M2.21 609 C1.71 609 1.44 609.26 1.34 609.73 C1.34 609.73 2.78 609.61 2.78 609.61 C2.84 609.29 2.78 609 2.21
							 609 L2.21 609 ZM1.2 610.42 C1.14 610.88 1.31 611.04 1.91 611.04 L3.41 611.04 C3.41 611.04 3.26 611.75
							 3.26 611.75 C3.26 611.75 2.36 612 1.69 612 C0.02 612 0 611.06 0.21 610.05 C0.43 609.06 0.81 608.09 2.42
							 608.09 C3.98 608.09 4.05 609.03 3.67 610.42 L1.2 610.42 L1.2 610.42 Z" class="st24"/>
			</g>
			<g id="shape1153-225" v:mID="1153" v:groupContext="shape" transform="translate(127.219,-0.549951)">
				<title>Sheet.1153</title>
				<path d="M0.63 612 C0.24 612 0 611.89 0.1 611.43 C0.2 610.96 0.48 610.85 0.88 610.85 C1.24 610.85 1.49 610.96 1.4
							 611.43 C1.29 611.88 1 612 0.63 612 Z" class="st24"/>
			</g>
		</g>
		<g id="shape1154-227" v:mID="1154" v:groupContext="shape" transform="translate(666,216) rotate(90)">
			<title>Striped Arrow.1154</title>
			<v:userDefs>
				<v:ud v:nameU="visVersion" v:prompt="" v:val="VT0(15):26"/>
			</v:userDefs>
			<g id="shadow1154-228" v:groupContext="shadow" v:shadowOffsetX="0.345598" v:shadowOffsetY="-1.97279" v:shadowType="1"
					transform="matrix(1,0,0,1,1.97279,-0.345598)" class="st1">
				<path d="M6 604.8 L57.6 604.8 L57.6 597.6 L72 612 L57.6 626.4 L57.6 619.2 L6 619.2 L6 604.8 ZM2.4 604.8 L4.8 604.8
							 L4.8 619.2 L2.4 619.2 L2.4 604.8 ZM0 604.8 L1.2 604.8 L1.2 619.2 L0 619.2 L0 604.8 Z" class="st2"/>
			</g>
			<path d="M6 604.8 L57.6 604.8 L57.6 597.6 L72 612 L57.6 626.4 L57.6 619.2 L6 619.2 L6 604.8 ZM2.4 604.8 L4.8 604.8 L4.8
						 619.2 L2.4 619.2 L2.4 604.8 ZM0 604.8 L1.2 604.8 L1.2 619.2 L0 619.2 L0 604.8 Z" class="st3"/>
		</g>
		<g id="shape1155-232" v:mID="1155" v:groupContext="shape" transform="translate(1359,216) rotate(90)">
			<title>Striped Arrow.1155</title>
			<v:userDefs>
				<v:ud v:nameU="visVersion" v:prompt="" v:val="VT0(15):26"/>
			</v:userDefs>
			<g id="shadow1155-233" v:groupContext="shadow" v:shadowOffsetX="0.345598" v:shadowOffsetY="-1.97279" v:shadowType="1"
					transform="matrix(1,0,0,1,1.97279,-0.345598)" class="st1">
				<path d="M6 604.8 L57.6 604.8 L57.6 597.6 L72 612 L57.6 626.4 L57.6 619.2 L6 619.2 L6 604.8 ZM2.4 604.8 L4.8 604.8
							 L4.8 619.2 L2.4 619.2 L2.4 604.8 ZM0 604.8 L1.2 604.8 L1.2 619.2 L0 619.2 L0 604.8 Z" class="st2"/>
			</g>
			<path d="M6 604.8 L57.6 604.8 L57.6 597.6 L72 612 L57.6 626.4 L57.6 619.2 L6 619.2 L6 604.8 ZM2.4 604.8 L4.8 604.8 L4.8
						 619.2 L2.4 619.2 L2.4 604.8 ZM0 604.8 L1.2 604.8 L1.2 619.2 L0 619.2 L0 604.8 Z" class="st3"/>
		</g>
		<g id="shape1156-237" v:mID="1156" v:groupContext="shape" transform="translate(18,-391.5)">
			<title>Sheet.1156</title>
			<desc>Least Stressed</desc>
			<v:textBlock v:margins="rect(4,4,4,4)"/>
			<v:textRect cx="31.5" cy="589.5" width="63" height="45"/>
			<rect x="0" y="567" width="63" height="45" class="st4"/>
			<text x="18.76" y="585.9" class="st25" v:langID="1033"><v:paragraph v:horizAlign="1"/><v:tabList/>Least<v:newlineChar/><tspan
						x="10.83" dy="1.2em" class="st26">Stressed</tspan></text>		</g>
		<g id="shape1157-241" v:mID="1157" v:groupContext="shape" transform="translate(711,-387)">
			<title>Sheet.1157</title>
			<desc>Most Stressed</desc>
			<v:textBlock v:margins="rect(4,4,4,4)"/>
			<v:textRect cx="31.5" cy="589.5" width="63" height="45"/>
			<rect x="0" y="567" width="63" height="45" class="st4"/>
			<text x="18.85" y="585.9" class="st25" v:langID="1033"><v:paragraph v:horizAlign="1"/><v:tabList/>Most<v:newlineChar/><tspan
						x="10.83" dy="1.2em" class="st26">Stressed</tspan></text>		</g>
		<g id="shape1158-245" v:mID="1158" v:groupContext="shape" transform="translate(-135,387) rotate(-90) scale(-1,1)">
			<title>Notched Arrow.1158</title>
			<v:userDefs>
				<v:ud v:nameU="visVersion" v:val="VT0(15):26"/>
				<v:ud v:nameU="ArrowType" v:prompt="" v:val="VT0(2):26"/>
			</v:userDefs>
			<g id="shadow1158-246" v:groupContext="shadow" v:shadowOffsetX="0.345598" v:shadowOffsetY="-1.97279" v:shadowType="1"
					transform="matrix(1,0,0,1,1.97279,0.345598)" class="st1">
				<path d="M0 612 L12 600 L12 606 L63 606 L57 612 L63 618 L12 618 L12 624 L0 612 Z" class="st2"/>
			</g>
			<path d="M0 612 L12 600 L12 606 L63 606 L57 612 L63 618 L12 618 L12 624 L0 612 Z" class="st3"/>
		</g>
		<g id="shape1159-250" v:mID="1159" v:groupContext="shape" transform="translate(445.5,-135)">
			<title>Sheet.1159</title>
			<desc>Me</desc>
			<v:textBlock v:margins="rect(4,4,4,4)"/>
			<v:textRect cx="31.5" cy="589.5" width="63" height="45"/>
			<rect x="0" y="567" width="63" height="45" class="st4"/>
			<text x="23.38" y="600.3" class="st25" v:langID="1033"><v:paragraph v:horizAlign="1"/><v:tabList/><v:newlineChar/>Me</text>		</g>
		<g id="group1160-253" transform="translate(335.251,-305.512)" v:mID="1160" v:groupContext="group">
			<title>Sheet.1160</title>
			<g id="shape1022-254" v:mID="1022" v:groupContext="shape" transform="translate(0.163175,-25.8342)">
				<title>Sheet.1022</title>
				<rect x="0" y="610.823" width="104.616" height="1.17691" class="st27"/>
			</g>
			<g id="shape1023-256" v:mID="1023" v:groupContext="shape" transform="translate(3.25895,-11.2673)">
				<title>Sheet.1023</title>
				<path d="M8.8 612 L4.56 612 L0 598.15 L4.56 598.15 L6.68 605.64 L7.01 606.95 L7.5 605.64 L9.61 598.15 L13.04 598.15
							 L8.8 612 Z" class="st27"/>
			</g>
			<g id="shape1024-258" v:mID="1024" v:groupContext="shape" transform="translate(16.1324,-11.2673)">
				<title>Sheet.1024</title>
				<path d="M0 601.73 L3.91 601.73 L3.91 612 L0 612 L0 601.73 ZM0 597.99 L3.91 597.99 L3.91 600.76 L0 600.76 L0 597.99
							 Z" class="st27"/>
			</g>
			<g id="shape1025-260" v:mID="1025" v:groupContext="shape" transform="translate(19.8795,-11.105)">
				<title>Sheet.1025</title>
				<path d="M3.1 608.41 C3.42 609.39 4.4 609.56 5.22 609.56 C5.7 609.56 6.85 609.56 6.85 608.9 C6.85 608.41 5.54 608.25
							 5.05 608.25 C2.93 607.93 0.49 607.6 0.49 604.83 C0.49 603.69 0.98 602.71 1.96 602.22 C2.93 601.57 4.07
							 601.41 5.22 601.41 C7.17 601.41 9.29 602.06 9.94 604.02 L6.84 604.67 C6.52 603.85 5.87 603.69 5.05 603.69
							 C4.73 603.69 3.75 603.85 3.75 604.18 C3.75 604.5 4.24 604.67 4.4 604.83 C4.89 604.83 5.7 604.99 6.19
							 604.99 C7.01 605.16 8.15 605.32 8.96 605.81 C9.94 606.3 10.43 607.27 10.43 608.41 C10.43 611.19 7.33
							 612 5.05 612 C2.77 612 0.65 611.19 0 608.9 L3.1 608.41 Z" class="st27"/>
			</g>
			<g id="shape1026-262" v:mID="1026" v:groupContext="shape" transform="translate(30.1467,-11.1053)">
				<title>Sheet.1026</title>
				<path d="M6.19 611.84 L6.19 610.04 C5.7 611.35 4.4 612 3.1 612 C2.28 612 1.47 611.84 0.81 611.19 C0.16 610.53 0 609.56
							 0 608.58 L0 601.57 L3.91 601.57 L3.91 607.76 C3.91 608.41 3.91 609.07 4.89 609.07 C5.21 609.07 5.7 608.9
							 5.87 608.58 C6.03 608.25 6.03 607.76 6.03 607.44 L6.03 601.57 L9.94 601.57 L9.94 611.84 L6.19 611.84
							 L6.19 611.84 Z" class="st27"/>
			</g>
			<g id="shape1027-264" v:mID="1027" v:groupContext="shape" transform="translate(39.9233,-11.105)">
				<title>Sheet.1027</title>
				<path d="M6.84 607.27 C6.84 608.25 6.68 609.56 5.22 609.56 C4.56 609.56 4.24 609.23 4.24 608.58 C4.24 607.44 5.87
							 607.11 6.84 606.95 L6.84 607.27 L6.84 607.27 ZM10.92 611.84 C10.59 611.02 10.59 610.37 10.59 609.56
							 L10.59 605.97 C10.59 604.5 10.76 603.2 9.45 602.22 C8.47 601.57 6.84 601.41 5.7 601.41 C3.42 601.41
							 0.98 602.06 0.33 604.5 L4.07 604.83 C4.07 604.02 4.73 603.69 5.54 603.69 C6.52 603.69 6.84 604.18 6.84
							 604.99 L6.84 605.15 C5.38 605.15 4.07 605.32 2.77 605.81 C1.3 606.13 0 607.27 0 608.9 C0 611.02 1.79
							 612 3.59 612 C5.05 612 6.19 611.51 7.01 610.37 C7.01 610.86 7.01 611.35 7.17 611.84 L10.92 611.84 L10.92
							 611.84 Z" class="st27"/>
			</g>
			<g id="shape1028-266" v:mID="1028" v:groupContext="shape" transform="translate(50.8412,-11.2673)">
				<title>Sheet.1028</title>
				<path d="M0 598.15 L3.91 598.15 L3.91 612 L0 612 L0 598.15 Z" class="st27"/>
			</g>
			<g id="shape1029-268" v:mID="1029" v:groupContext="shape" transform="translate(57.3591,-11.2673)">
				<title>Sheet.1029</title>
				<path d="M3.91 608.9 L3.91 606.46 L5.54 606.46 C5.87 606.46 6.36 606.46 6.68 606.62 C7.17 606.78 7.5 607.27 7.5 607.6
							 C7.5 608.09 7.17 608.41 6.84 608.58 C6.52 608.9 6.03 608.9 5.7 608.9 L3.91 608.9 L3.91 608.9 ZM0 612
							 L6.36 612 C7.5 612 8.96 612 10.1 611.18 C11.08 610.53 11.41 609.07 11.41 607.92 C11.41 606.3 10.43 605.16
							 8.8 604.83 C10.27 604.5 11.08 603.2 11.08 601.9 C11.08 600.76 10.59 599.61 9.61 598.96 C8.8 598.31 7.82
							 598.15 6.68 598.15 L0 598.15 L0 612 ZM3.91 603.53 L3.91 601.24 L5.54 601.24 C6.36 601.24 7.17 601.24
							 7.17 602.39 C7.17 602.71 7.01 603.04 6.68 603.2 C6.52 603.53 6.03 603.53 5.54 603.53 L3.91 603.53 Z"
						class="st27"/>
			</g>
			<g id="shape1030-270" v:mID="1030" v:groupContext="shape" transform="translate(68.7663,-11.105)">
				<title>Sheet.1030</title>
				<path d="M6.68 607.27 C6.68 608.25 6.68 609.56 5.05 609.56 C4.4 609.56 4.07 609.23 4.07 608.58 C4.07 607.44 5.7 607.11
							 6.68 606.95 L6.68 607.27 L6.68 607.27 ZM10.75 611.84 C10.43 611.02 10.43 610.37 10.43 609.56 L10.43
							 605.97 C10.43 604.5 10.59 603.2 9.29 602.22 C8.31 601.57 6.68 601.41 5.54 601.41 C3.26 601.41 0.81 602.06
							 0.16 604.5 L3.91 604.83 C3.91 604.02 4.56 603.69 5.38 603.69 C6.36 603.69 6.68 604.18 6.68 604.99 L6.68
							 605.15 C5.21 605.15 3.91 605.32 2.61 605.81 C1.14 606.13 0 607.27 0 608.9 C0 611.02 1.63 612 3.42 612
							 C4.89 612 6.03 611.51 6.84 610.37 C6.84 610.86 6.84 611.35 7.01 611.84 L10.75 611.84 L10.75 611.84 Z"
						class="st27"/>
			</g>
			<g id="shape1031-272" v:mID="1031" v:groupContext="shape" transform="translate(79.0318,-11.105)">
				<title>Sheet.1031</title>
				<path d="M3.1 608.41 C3.26 609.39 4.4 609.56 5.38 609.56 C5.7 609.56 6.84 609.56 6.84 608.9 C6.84 608.41 5.38 608.25
							 5.05 608.25 C2.93 607.93 0.49 607.6 0.49 604.83 C0.49 603.69 0.98 602.71 1.96 602.22 C2.93 601.57 4.07
							 601.41 5.22 601.41 C7.17 601.41 9.29 602.06 9.94 604.02 L6.84 604.67 C6.52 603.85 5.87 603.69 5.05 603.69
							 C4.73 603.69 3.75 603.85 3.75 604.18 C3.75 604.5 4.24 604.67 4.4 604.83 C4.89 604.83 5.7 604.99 6.19
							 604.99 C7.01 605.16 8.15 605.32 8.96 605.81 C9.78 606.3 10.43 607.27 10.43 608.41 C10.43 611.19 7.33
							 612 5.05 612 C2.77 612 0.65 611.19 0 608.9 L3.1 608.41 Z" class="st27"/>
			</g>
			<g id="shape1032-274" v:mID="1032" v:groupContext="shape" transform="translate(89.2985,-11.2673)">
				<title>Sheet.1032</title>
				<path d="M0 601.73 L3.91 601.73 L3.91 612 L0 612 L0 601.73 ZM0 597.99 L3.91 597.99 L3.91 600.76 L0 600.76 L0 597.99
							 Z" class="st27"/>
			</g>
			<g id="shape1033-276" v:mID="1033" v:groupContext="shape" transform="translate(93.5348,-11.105)">
				<title>Sheet.1033</title>
				<path d="M10.1 607.93 C9.78 610.53 7.82 612 5.22 612 C3.75 612 2.61 611.67 1.47 610.53 C0.49 609.56 0 608.09 0 606.62
							 C0 603.69 2.12 601.41 5.22 601.41 C7.82 601.41 9.78 602.88 10.1 605.48 L6.52 605.64 C6.36 604.83 6.19
							 604.18 5.38 604.18 C4.07 604.18 4.07 605.81 4.07 606.62 C4.07 607.6 4.07 609.23 5.38 609.23 C6.36 609.23
							 6.52 608.41 6.68 607.6 L10.1 607.93 Z" class="st27"/>
			</g>
			<g id="shape1034-278" v:mID="1034" v:groupContext="shape" transform="translate(-5.39568E-014,-28.8666)">
				<title>Sheet.1034</title>
				<path d="M1.14 612 L0 612 L0 601.9 L1.96 601.9 L4.89 610.04 L7.98 601.9 L9.78 601.9 L9.78 612 L8.47 612 L8.47 603.2
							 L5.21 612 L4.4 612 L1.14 603.2 L1.14 612 Z" class="st27"/>
			</g>
			<g id="shape1035-280" v:mID="1035" v:groupContext="shape" transform="translate(11.5698,-28.8666)">
				<title>Sheet.1035</title>
				<path d="M0.16 604.5 L1.3 604.5 L1.3 612 L0.16 612 L0.16 604.5 ZM0 601.9 L1.3 601.9 L1.3 603.2 L0 603.2 L0 601.9 Z"
						class="st27"/>
			</g>
			<g id="shape1036-282" v:mID="1036" v:groupContext="shape" transform="translate(14.0143,-28.704)">
				<title>Sheet.1036</title>
				<path d="M6.03 609.39 C5.87 610.86 4.89 612 3.26 612 C0.98 612 0 610.04 0 608.09 C0 606.13 0.98 604.18 3.26 604.18
							 C4.89 604.18 5.87 605.32 6.03 606.79 L5.05 606.95 C4.89 605.97 4.4 605.16 3.26 605.16 C1.63 605.16 1.3
							 606.79 1.3 608.09 C1.3 609.23 1.63 611.02 3.26 611.02 C4.24 611.02 4.89 610.21 5.05 609.23 L6.03 609.39
							 Z" class="st27"/>
			</g>
			<g id="shape1037-284" v:mID="1037" v:groupContext="shape" transform="translate(21.184,-28.8663)">
				<title>Sheet.1037</title>
				<path d="M0.98 604.5 L0.98 606.3 L1.14 606.3 C1.47 605.32 2.12 604.34 3.26 604.34 L3.75 604.34 L3.75 605.48 L3.42
							 605.48 C2.61 605.48 1.96 605.97 1.47 606.62 C1.3 607.27 1.14 607.6 1.14 608.25 L1.14 612 L0 612 L0 604.5
							 L0.98 604.5 Z" class="st27"/>
			</g>
			<g id="shape1038-286" v:mID="1038" v:groupContext="shape" transform="translate(24.9319,-28.704)">
				<title>Sheet.1038</title>
				<path d="M3.42 611.02 C2.77 611.02 2.12 610.7 1.79 610.04 C1.47 609.56 1.3 608.74 1.3 608.09 C1.3 607.44 1.47 606.79
							 1.63 606.13 C1.96 605.48 2.61 605.16 3.42 605.16 C4.07 605.16 4.73 605.48 5.05 605.97 C5.38 606.62 5.54
							 607.44 5.54 608.09 C5.54 608.74 5.38 609.39 5.05 610.05 C4.73 610.7 4.07 611.02 3.42 611.02 ZM3.26 612
							 C5.54 612 6.68 610.21 6.68 608.09 C6.68 606.13 5.7 604.18 3.42 604.18 C1.3 604.18 0 605.97 0 608.09
							 C0 610.04 0.98 612 3.26 612 Z" class="st27"/>
			</g>
			<g id="shape1039-288" v:mID="1039" v:groupContext="shape" transform="translate(32.4275,-28.7043)">
				<title>Sheet.1039</title>
				<path d="M1.14 609.72 C1.3 610.7 2.45 611.02 3.42 611.02 C4.24 611.02 5.22 610.7 5.22 609.88 C5.22 609.07 4.4 608.74
							 3.75 608.74 L2.61 608.42 C1.47 608.25 0.33 607.76 0.33 606.46 C0.33 604.83 1.79 604.18 3.1 604.18 C4.56
							 604.18 5.7 604.67 6.03 606.13 L5.05 606.3 C4.73 605.48 3.91 605.16 3.1 605.16 C2.45 605.16 1.47 605.32
							 1.47 606.3 C1.47 606.95 2.28 607.27 2.93 607.27 L3.91 607.44 C4.56 607.6 5.05 607.76 5.54 608.09 C6.19
							 608.41 6.36 609.07 6.36 609.72 C6.36 611.35 4.73 612 3.26 612 C1.79 612 0.49 611.35 0 609.88 L1.14 609.72
							 Z" class="st27"/>
			</g>
			<g id="shape1040-290" v:mID="1040" v:groupContext="shape" transform="translate(39.5978,-28.704)">
				<title>Sheet.1040</title>
				<path d="M3.42 611.02 C2.77 611.02 2.12 610.7 1.79 610.04 C1.47 609.56 1.3 608.74 1.3 608.09 C1.3 607.44 1.47 606.79
							 1.63 606.13 C1.96 605.48 2.61 605.16 3.42 605.16 C4.07 605.16 4.73 605.48 5.05 605.97 C5.38 606.62 5.54
							 607.44 5.54 608.09 C5.54 608.74 5.38 609.39 5.05 610.05 C4.73 610.7 4.24 611.02 3.42 611.02 ZM3.26 612
							 C5.54 612 6.84 610.21 6.84 608.09 C6.84 606.13 5.7 604.18 3.42 604.18 C1.3 604.18 0 605.97 0 608.09
							 C0 610.04 1.14 612 3.26 612 Z" class="st27"/>
			</g>
			<g id="shape1041-292" v:mID="1041" v:groupContext="shape" transform="translate(46.7672,-28.8666)">
				<title>Sheet.1041</title>
				<path d="M4.24 605.48 L2.44 605.48 L2.44 612 L1.3 612 L1.3 605.48 L0 605.48 L0 604.5 L1.3 604.5 C1.14 603.04 1.79
							 601.57 3.58 601.73 L4.56 601.9 L4.56 602.87 C4.24 602.71 3.91 602.71 3.58 602.71 C2.44 602.71 2.44 603.69
							 2.44 604.5 L4.24 604.5 L4.24 605.48 L4.24 605.48 Z" class="st27"/>
			</g>
			<g id="shape1042-294" v:mID="1042" v:groupContext="shape" transform="translate(50.5154,-28.704)">
				<title>Sheet.1042</title>
				<path d="M4.56 612 L3.42 612 C1.79 612 1.3 611.02 1.3 609.56 L1.3 605.32 L0 605.32 L0 604.34 L1.3 604.34 L1.3 602.55
							 L2.44 602.39 L2.44 604.34 L4.24 604.34 L4.24 605.32 L2.44 605.32 L2.44 609.72 C2.44 610.7 2.77 611.02
							 3.75 611.02 L4.56 611.02 L4.56 612 Z" class="st27"/>
			</g>
			<g id="shape1043-296" v:mID="1043" v:groupContext="shape" transform="translate(129.874,-20.0677)">
				<title>Sheet.1043</title>
				<path d="M0 606.46 L0 598.48 L10.27 603.36 L10.27 612 L0 606.46 Z" class="st27"/>
			</g>
			<g id="shape1044-298" v:mID="1044" v:groupContext="shape" transform="translate(130.689,-21.3714)">
				<title>Sheet.1044</title>
				<path d="M0 607.11 L0 600.76 L9.12 605.16 L9.12 612 L0 607.11 Z" class="st28"/>
			</g>
			<g id="shape1045-300" v:mID="1045" v:groupContext="shape" transform="translate(129.874,-28.3782)">
				<title>Sheet.1045</title>
				<path d="M0 606.79 L9.78 602.55 L19.72 607.27 L10.75 612 L0 606.79 Z" class="st27"/>
			</g>
			<g id="shape1046-302" v:mID="1046" v:groupContext="shape" transform="translate(131.503,-29.0301)">
				<title>Sheet.1046</title>
				<path d="M0 607.6 L7.99 604.18 L16.46 608.09 L8.8 612 L0 607.6 Z" class="st28"/>
			</g>
			<g id="shape1047-304" v:mID="1047" v:groupContext="shape" transform="translate(139.977,-20.0677)">
				<title>Sheet.1047</title>
				<path d="M0 603.53 L0.16 612 L9.78 607.27 L9.61 598.96 L0 603.53 Z" class="st27"/>
			</g>
			<g id="shape1048-306" v:mID="1048" v:groupContext="shape" transform="translate(140.954,-21.3714)">
				<title>Sheet.1048</title>
				<path d="M0 605.16 L0 612 L7.82 608.09 L7.82 601.08 L0 605.16 Z" class="st28"/>
			</g>
			<g id="shape1049-308" v:mID="1049" v:groupContext="shape" transform="translate(115.209,-28.3782)">
				<title>Sheet.1049</title>
				<path d="M0 606.46 L0 598.47 L10.27 603.36 L10.27 612 L0 606.46 Z" class="st27"/>
			</g>
			<g id="shape1050-310" v:mID="1050" v:groupContext="shape" transform="translate(116.023,-29.5185)">
				<title>Sheet.1050</title>
				<path d="M0 606.95 L0 600.59 L9.12 604.99 L9.12 612 L0 606.95 Z" class="st29"/>
			</g>
			<g id="shape1051-312" v:mID="1051" v:groupContext="shape" transform="translate(115.209,-36.6888)">
				<title>Sheet.1051</title>
				<path d="M0 606.79 L9.78 602.71 L19.72 607.27 L10.75 612 L0 606.79 Z" class="st27"/>
			</g>
			<g id="shape1052-314" v:mID="1052" v:groupContext="shape" transform="translate(116.837,-37.3403)">
				<title>Sheet.1052</title>
				<path d="M0 607.6 L7.99 604.18 L16.46 608.09 L8.8 612 L0 607.6 Z" class="st29"/>
			</g>
			<g id="shape1053-316" v:mID="1053" v:groupContext="shape" transform="translate(125.311,-28.3782)">
				<title>Sheet.1053</title>
				<path d="M0 603.53 L0.16 612 L9.78 607.27 L9.61 598.96 L0 603.53 Z" class="st27"/>
			</g>
			<g id="shape1054-318" v:mID="1054" v:groupContext="shape" transform="translate(126.289,-29.6816)">
				<title>Sheet.1054</title>
				<path d="M0 605.16 L0 612 L7.82 608.09 L7.82 601.24 L0 605.16 Z" class="st29"/>
			</g>
			<g id="shape1055-320" v:mID="1055" v:groupContext="shape" transform="translate(101.194,-20.5555)">
				<title>Sheet.1055</title>
				<path d="M0 606.46 L0 598.47 L10.1 603.36 L10.27 612 L0 606.46 Z" class="st27"/>
			</g>
			<g id="shape1056-322" v:mID="1056" v:groupContext="shape" transform="translate(102.009,-21.8595)">
				<title>Sheet.1056</title>
				<path d="M0 607.11 L0 600.76 L9.13 605.16 L9.13 612 L0 607.11 Z" class="st30"/>
			</g>
			<g id="shape1057-324" v:mID="1057" v:groupContext="shape" transform="translate(101.194,-28.8666)">
				<title>Sheet.1057</title>
				<path d="M0 606.79 L9.78 602.55 L19.72 607.27 L10.59 612 L0 606.79 Z" class="st27"/>
			</g>
			<g id="shape1058-326" v:mID="1058" v:groupContext="shape" transform="translate(102.661,-29.5185)">
				<title>Sheet.1058</title>
				<path d="M0 607.6 L8.15 604.18 L16.62 608.09 L8.96 612 L0 607.6 Z" class="st30"/>
			</g>
			<g id="shape1059-328" v:mID="1059" v:groupContext="shape" transform="translate(111.297,-20.5555)">
				<title>Sheet.1059</title>
				<path d="M0 603.53 L0.16 612 L9.78 607.27 L9.61 598.96 L0 603.53 Z" class="st27"/>
			</g>
			<g id="shape1060-330" v:mID="1060" v:groupContext="shape" transform="translate(112.112,-21.8595)">
				<title>Sheet.1060</title>
				<path d="M0 605.16 L0.16 612 L7.99 608.09 L7.82 601.08 L0 605.16 Z" class="st30"/>
			</g>
			<g id="shape1061-332" v:mID="1061" v:groupContext="shape" transform="translate(116.023,-19.2535)">
				<title>Sheet.1061</title>
				<path d="M0 606.3 L0 598.31 L10.1 603.2 L10.27 612 L0 606.3 Z" class="st27"/>
			</g>
			<g id="shape1062-334" v:mID="1062" v:groupContext="shape" transform="translate(116.837,-20.5555)">
				<title>Sheet.1062</title>
				<path d="M0 607.11 L0 600.59 L9.13 604.99 L9.13 612 L0 607.11 Z" class="st31"/>
			</g>
			<g id="shape1063-336" v:mID="1063" v:groupContext="shape" transform="translate(116.023,-27.7264)">
				<title>Sheet.1063</title>
				<path d="M0 606.79 L9.78 602.71 L19.72 607.27 L10.59 612 L0 606.79 Z" class="st27"/>
			</g>
			<g id="shape1064-338" v:mID="1064" v:groupContext="shape" transform="translate(117.489,-28.3782)">
				<title>Sheet.1064</title>
				<path d="M0 607.76 L8.15 604.34 L16.62 608.25 L8.8 612 L0 607.76 Z" class="st31"/>
			</g>
			<g id="shape1065-340" v:mID="1065" v:groupContext="shape" transform="translate(126.126,-19.2535)">
				<title>Sheet.1065</title>
				<path d="M0 603.36 L0.16 612 L9.61 607.11 L9.61 598.8 L0 603.36 Z" class="st27"/>
			</g>
			<g id="shape1066-342" v:mID="1066" v:groupContext="shape" transform="translate(126.941,-20.7195)">
				<title>Sheet.1066</title>
				<path d="M0 605.16 L0.16 612 L7.98 608.25 L7.82 601.25 L0 605.16 Z" class="st31"/>
			</g>
			<g id="shape1067-344" v:mID="1067" v:groupContext="shape" transform="translate(55.4041,-35.059)">
				<title>Sheet.1067</title>
				<path d="M1.63 609.23 C2.28 609.23 2.93 609.72 2.93 610.53 C2.93 611.18 2.28 611.67 1.63 611.67 C0.81 611.67 0.33
							 611.18 0.33 610.53 C0.33 609.72 0.81 609.23 1.63 609.23 ZM1.63 612 C2.44 612 3.1 611.35 3.1 610.53 C3.1
							 609.56 2.44 608.9 1.63 608.9 C0.65 608.9 0 609.56 0 610.53 C0 611.35 0.65 612 1.63 612 ZM1.79 610.53
							 C2.12 610.53 2.44 610.37 2.44 610.04 C2.44 609.88 2.28 609.72 2.12 609.72 C2.12 609.56 1.96 609.56 1.79
							 609.56 L0.98 609.56 L0.98 611.35 L1.3 611.35 L1.3 610.53 L1.63 610.53 L2.12 611.35 L2.28 611.35 L1.79
							 610.53 ZM1.3 610.37 L1.3 609.88 L1.79 609.88 C1.95 609.88 2.12 609.88 2.12 610.04 C2.12 610.37 1.79
							 610.37 1.47 610.37 L1.3 610.37 Z" class="st27"/>
			</g>
			<g id="shape1068-346" v:mID="1068" v:groupContext="shape" transform="translate(104.779,-18.2759)">
				<title>Sheet.1068</title>
				<path d="M1.63 609.23 C2.28 609.23 2.77 609.72 2.77 610.37 C2.77 611.02 2.28 611.67 1.63 611.67 C0.81 611.67 0.33
							 611.02 0.33 610.37 C0.33 609.72 0.81 609.23 1.63 609.23 ZM1.63 612 C2.44 612 3.1 611.19 3.1 610.37 C3.1
							 609.56 2.44 608.9 1.63 608.9 C0.65 608.9 0 609.56 0 610.37 C0 611.19 0.65 612 1.63 612 ZM1.79 610.53
							 C2.12 610.53 2.28 610.37 2.28 610.05 C2.28 609.88 2.28 609.72 2.12 609.56 C1.96 609.56 1.79 609.56 1.79
							 609.56 L0.98 609.56 L0.98 611.19 L1.14 611.19 L1.14 610.53 L1.47 610.53 L1.96 611.19 L2.28 611.19 L1.79
							 610.53 ZM1.14 610.21 L1.14 609.72 L1.63 609.72 C1.96 609.72 2.12 609.72 2.12 610.05 C2.12 610.37 1.79
							 610.21 1.47 610.21 L1.14 610.21 L1.14 610.21 Z" class="st27"/>
			</g>
			<g id="shape1069-348" v:mID="1069" v:groupContext="shape" transform="translate(146.82,-20.8818)">
				<title>Sheet.1069</title>
				<path d="M0.49 612 L0.49 610.37 L0 610.37 L0 610.21 L1.3 610.21 L1.3 610.37 L0.65 610.37 L0.65 612 L0.49 612 Z"
						class="st27"/>
			</g>
			<g id="shape1070-350" v:mID="1070" v:groupContext="shape" transform="translate(148.613,-20.8818)">
				<title>Sheet.1070</title>
				<path d="M0.16 612 L0 612 L0 610.21 L0.33 610.21 L0.81 611.67 L1.47 610.21 L1.79 610.21 L1.79 612 L1.47 612 L1.47
							 610.37 L0.98 612 L0.81 612 L0.16 610.37 L0.16 612 Z" class="st27"/>
			</g>
			<g id="group1071-352" transform="translate(55.7359,0)" v:mID="1071" v:groupContext="group">
				<title>Sheet.1071</title>
				<g id="shape1072-353" v:mID="1072" v:groupContext="shape" transform="translate(0,-2.20286)">
					<title>Sheet.1072</title>
					<path d="M0.75 612 L0.75 607.36 L0 607.36 L0 606.62 L0.75 606.62 L0.75 606.36 C0.75 605.6 0.92 604.91 1.38 604.48
								 C1.75 604.12 2.24 603.98 2.68 603.98 C3.04 603.98 3.33 604.06 3.52 604.13 L3.39 604.89 C3.24 604.82
								 3.05 604.77 2.76 604.77 C1.94 604.77 1.71 605.5 1.71 606.33 L1.71 606.62 L3.01 606.62 L3.01 607.36
								 L1.72 607.36 L1.72 612 L0.75 612 Z" class="st27"/>
				</g>
				<g id="shape1073-355" v:mID="1073" v:groupContext="shape" transform="translate(3.65978,-2.08091)">
					<title>Sheet.1073</title>
					<path d="M2.58 612 C1.13 612 0 610.93 0 609.23 C0 607.43 1.19 606.37 2.67 606.37 C4.22 606.37 5.26 607.49 5.26
								 609.13 C5.26 611.13 3.87 612 2.59 612 L2.58 612 ZM2.61 611.27 C3.55 611.27 4.25 610.39 4.25 609.16
								 C4.25 608.25 3.79 607.11 2.64 607.11 C1.49 607.11 0.99 608.17 0.99 609.2 C0.99 610.38 1.66 611.27
								 2.6 611.27 L2.61 611.27 L2.61 611.27 Z" class="st27"/>
				</g>
				<g id="shape1074-357" v:mID="1074" v:groupContext="shape" transform="translate(10.4017,-2.20229)">
					<title>Sheet.1074</title>
					<path d="M0.04 608.29 C0.04 607.66 0.03 607.12 0 606.61 L0.86 606.61 L0.9 607.67 L0.93 607.67 C1.18 606.95 1.78
								 606.49 2.44 606.49 C2.54 606.49 2.61 606.5 2.7 606.53 L2.7 607.44 C2.59 607.43 2.49 607.42 2.36
								 607.42 C1.67 607.42 1.18 607.94 1.05 608.66 C1.02 608.81 1.01 608.96 1.01 609.13 L1.01 612 L0.03
								 612 L0.04 608.29 Z" class="st27"/>
				</g>
				<g id="shape1075-359" v:mID="1075" v:groupContext="shape" transform="translate(16.4545,-2.20286)">
					<title>Sheet.1075</title>
					<path d="M1.78 609.64 L1 612 L0 612 L2.55 604.5 L3.72 604.5 L6.27 612 L5.24 612 L4.44 609.64 L1.78 609.64 ZM4.24
								 608.89 L3.49 606.73 C3.34 606.24 3.23 605.79 3.11 605.36 L3.08 605.36 C2.98 605.79 2.86 606.26 2.71
								 606.72 L1.98 608.88 L4.24 608.88 L4.24 608.89 Z" class="st27"/>
				</g>
				<g id="shape1076-361" v:mID="1076" v:groupContext="shape" transform="translate(23.9978,0)">
					<title>Sheet.1076</title>
					<path d="M0.04 606.17 C0.04 605.48 0.03 604.92 0 604.41 L0.88 604.41 L0.93 605.34 L0.96 605.34 C1.35 604.67 1.99
								 604.29 2.86 604.29 C4.17 604.29 5.15 605.39 5.15 607.03 C5.15 608.96 3.96 609.92 2.7 609.92 C1.98
								 609.92 1.37 609.61 1.05 609.07 L1.02 609.07 L1.02 612 L0.04 612 L0.04 606.17 L0.04 606.17 ZM1.02
								 607.61 C1.02 607.74 1.03 607.88 1.07 608.01 C1.23 608.68 1.84 609.15 2.52 609.15 C3.56 609.15 4.16
								 608.31 4.16 607.07 C4.16 605.99 3.6 605.07 2.57 605.07 C1.9 605.07 1.27 605.54 1.08 606.27 C1.06
								 606.4 1.02 606.55 1.02 606.67 L1.02 607.61 Z" class="st27"/>
				</g>
				<g id="shape1077-363" v:mID="1077" v:groupContext="shape" transform="translate(30.6058,0)">
					<title>Sheet.1077</title>
					<path d="M0.04 606.17 C0.04 605.48 0.03 604.92 0 604.41 L0.88 604.41 L0.93 605.34 L0.96 605.34 C1.35 604.67 1.99
								 604.29 2.86 604.29 C4.17 604.29 5.15 605.39 5.15 607.03 C5.15 608.96 3.96 609.92 2.7 609.92 C1.98
								 609.92 1.37 609.61 1.05 609.07 L1.02 609.07 L1.02 612 L0.04 612 L0.04 606.17 L0.04 606.17 ZM1.02
								 607.61 C1.02 607.74 1.03 607.88 1.07 608.01 C1.23 608.68 1.84 609.15 2.52 609.15 C3.56 609.15 4.16
								 608.31 4.16 607.07 C4.16 605.99 3.6 605.07 2.57 605.07 C1.9 605.07 1.27 605.54 1.08 606.27 C1.06
								 606.4 1.02 606.55 1.02 606.67 L1.02 607.61 Z" class="st27"/>
				</g>
				<g id="shape1078-365" v:mID="1078" v:groupContext="shape" transform="translate(37.2587,-2.20286)">
					<title>Sheet.1078</title>
					<path d="M0 604.1 L0.98 604.1 L0.98 612 L0 612 L0 604.1 Z" class="st27"/>
				</g>
				<g id="shape1079-367" v:mID="1079" v:groupContext="shape" transform="translate(39.9955,-2.20286)">
					<title>Sheet.1079</title>
					<path d="M0.61 605.62 C0.25 605.62 0 605.34 0 604.99 C0 604.65 0.26 604.37 0.63 604.37 C1.01 604.37 1.26 604.65
								 1.26 604.99 C1.26 605.34 1.01 605.62 0.62 605.62 L0.61 605.62 ZM0.14 612 L0.14 606.62 L1.12 606.62
								 L1.12 612 L0.14 612 Z" class="st27"/>
				</g>
				<g id="shape1080-369" v:mID="1080" v:groupContext="shape" transform="translate(42.6313,-2.08091)">
					<title>Sheet.1080</title>
					<path d="M4.23 611.69 C3.97 611.81 3.4 612 2.68 612 C1.06 612 0 610.9 0 609.24 C0 607.58 1.14 606.37 2.89 606.37
								 C3.47 606.37 3.98 606.52 4.25 606.66 L4.03 607.41 C3.79 607.28 3.43 607.15 2.89 607.15 C1.66 607.15
								 0.99 608.07 0.99 609.2 C0.99 610.44 1.79 611.21 2.86 611.21 C3.42 611.21 3.78 611.08 4.06 610.95
								 L4.23 611.69 Z" class="st27"/>
				</g>
				<g id="shape1081-371" v:mID="1081" v:groupContext="shape" transform="translate(47.8716,-2.08119)">
					<title>Sheet.1081</title>
					<path d="M4.22 610.59 C4.22 611.06 4.24 611.51 4.29 611.88 L3.42 611.88 L3.33 611.2 L3.29 611.2 C3 611.62 2.41
								 612 1.65 612 C0.56 612 0 611.23 0 610.45 C0 609.15 1.16 608.44 3.24 608.45 L3.24 608.34 C3.24 607.89
								 3.11 607.08 2.01 607.09 C1.5 607.09 0.98 607.24 0.6 607.49 L0.38 606.84 C0.82 606.56 1.48 606.37
								 2.16 606.37 C3.82 606.37 4.22 607.49 4.22 608.57 L4.22 610.59 ZM3.26 609.13 C2.19 609.11 0.98 609.3
								 0.98 610.34 C0.98 610.99 1.4 611.28 1.89 611.28 C2.6 611.28 3.06 610.83 3.21 610.38 C3.25 610.28
								 3.26 610.16 3.26 610.06 L3.26 609.13 Z" class="st27"/>
				</g>
				<g id="shape1082-373" v:mID="1082" v:groupContext="shape" transform="translate(53.2783,-2.08062)">
					<title>Sheet.1082</title>
					<path d="M1.79 605.2 L1.79 606.49 L3.19 606.49 L3.19 607.24 L1.79 607.24 L1.79 610.14 C1.79 610.81 1.98 611.19
								 2.52 611.19 C2.79 611.19 2.95 611.17 3.09 611.12 L3.14 611.87 C2.95 611.93 2.65 612 2.27 612 C1.81
								 612 1.45 611.84 1.21 611.59 C0.95 611.29 0.83 610.81 0.83 610.18 L0.83 607.24 L0 607.24 L0 606.49
								 L0.83 606.49 L0.83 605.5 L1.79 605.2 Z" class="st27"/>
				</g>
				<g id="shape1083-375" v:mID="1083" v:groupContext="shape" transform="translate(57.7068,-2.20286)">
					<title>Sheet.1083</title>
					<path d="M0.61 605.62 C0.24 605.62 0 605.34 0 604.99 C0 604.65 0.26 604.37 0.63 604.37 C1.01 604.37 1.26 604.65
								 1.26 604.99 C1.26 605.34 1.01 605.62 0.62 605.62 L0.61 605.62 ZM0.14 612 L0.14 606.62 L1.12 606.62
								 L1.12 612 L0.14 612 Z" class="st27"/>
				</g>
				<g id="shape1084-377" v:mID="1084" v:groupContext="shape" transform="translate(60.3432,-2.08091)">
					<title>Sheet.1084</title>
					<path d="M2.58 612 C1.14 612 0 610.93 0 609.23 C0 607.43 1.19 606.37 2.67 606.37 C4.22 606.37 5.26 607.49 5.26
								 609.13 C5.26 611.13 3.87 612 2.59 612 L2.58 612 ZM2.61 611.27 C3.55 611.27 4.25 610.39 4.25 609.16
								 C4.25 608.25 3.79 607.11 2.64 607.11 C1.49 607.11 0.99 608.17 0.99 609.2 C0.99 610.38 1.66 611.27
								 2.6 611.27 L2.61 611.27 L2.61 611.27 Z" class="st27"/>
				</g>
				<g id="shape1085-379" v:mID="1085" v:groupContext="shape" transform="translate(67.0745,-2.20229)">
					<title>Sheet.1085</title>
					<path d="M0.04 608.07 C0.04 607.51 0.03 607.06 0 606.61 L0.87 606.61 L0.92 607.49 L0.94 607.49 C1.21 606.99 1.84
								 606.49 2.73 606.49 C3.47 606.49 4.63 606.94 4.63 608.79 L4.63 612 L3.65 612 L3.65 608.9 C3.65 608.03
								 3.33 607.29 2.4 607.29 C1.77 607.29 1.27 607.75 1.09 608.3 C1.05 608.42 1.02 608.6 1.02 608.75 L1.02
								 612 L0.04 612 L0.04 608.07 L0.04 608.07 Z" class="st27"/>
				</g>
				<g id="shape1086-381" v:mID="1086" v:groupContext="shape" transform="translate(73.2041,-2.08062)">
					<title>Sheet.1086</title>
					<path d="M0.23 610.89 C0.53 611.07 1.05 611.27 1.54 611.27 C2.24 611.27 2.57 610.92 2.57 610.46 C2.57 610 2.29
								 609.74 1.58 609.48 C0.6 609.12 0.15 608.6 0.15 607.95 C0.15 607.08 0.86 606.37 2 606.37 C2.55 606.37
								 3.03 606.52 3.32 606.7 L3.08 607.41 C2.87 607.28 2.48 607.09 1.98 607.09 C1.4 607.09 1.09 607.43
								 1.09 607.83 C1.09 608.28 1.4 608.48 2.1 608.75 C3.03 609.1 3.52 609.56 3.52 610.38 C3.52 611.33
								 2.77 612 1.51 612 C0.92 612 0.38 611.84 0 611.62 L0.23 610.89 Z" class="st27"/>
				</g>
			</g>
		</g>
	</g>
</svg>
